{
	"asset":{
		"generator":"Khronos glTF Blender I/O v3.6.27",
		"version":"2.0"
	},
	"scene":0,
	"scenes":[
		{
			"name":"Scene",
			"nodes":[
				0
			]
		}
	],
	"nodes":[
		{
			"mesh":0,
			"name":"Cultist.001"
		}
	],
	"materials":[
		{
			"doubleSided":true,
			"name":"Material.002",
			"pbrMetallicRoughness":{
				"baseColorTexture":{
					"index":0
				},
				"metallicFactor":0,
				"roughnessFactor":0.5
			}
		}
	],
	"meshes":[
		{
			"name":"Cultist<convex>",
			"primitives":[
				{
					"attributes":{
						"POSITION":0,
						"NORMAL":1,
						"TEXCOORD_0":2
					},
					"indices":3,
					"material":0
				}
			]
		}
	],
	"textures":[
		{
			"sampler":0,
			"source":0
		}
	],
	"images":[
		{
			"bufferView":4,
			"mimeType":"image/png",
			"name":"painted_noise"
		}
	],
	"accessors":[
		{
			"bufferView":0,
			"componentType":5126,
			"count":10446,
			"max":[
				1.8505420684814453,
				3.7847323417663574,
				2.1095690727233887
			],
			"min":[
				-2.6762185096740723,
				-1.9209165573120117,
				-1.7159597873687744
			],
			"type":"VEC3"
		},
		{
			"bufferView":1,
			"componentType":5126,
			"count":10446,
			"type":"VEC3"
		},
		{
			"bufferView":2,
			"componentType":5126,
			"count":10446,
			"type":"VEC2"
		},
		{
			"bufferView":3,
			"componentType":5123,
			"count":47778,
			"type":"SCALAR"
		}
	],
	"bufferViews":[
		{
			"buffer":0,
			"byteLength":125352,
			"byteOffset":0,
			"target":34962
		},
		{
			"buffer":0,
			"byteLength":125352,
			"byteOffset":125352,
			"target":34962
		},
		{
			"buffer":0,
			"byteLength":83568,
			"byteOffset":250704,
			"target":34962
		},
		{
			"buffer":0,
			"byteLength":95556,
			"byteOffset":334272,
			"target":34963
		},
		{
			"buffer":0,
			"byteLength":137639,
			"byteOffset":429828
		}
	],
	"samplers":[
		{
			"magFilter":9729,
			"minFilter":9987
		}
	],
	"buffers":[
		{
			"byteLength":567468,
			"uri":"data:application/octet-stream;base64,"
		}
	]
}
