{
	"asset":{
		"generator":"Khronos glTF Blender I/O v3.6.27",
		"version":"2.0"
	},
	"scene":0,
	"scenes":[
		{
			"name":"Scene",
			"nodes":[
				0
			]
		}
	],
	"nodes":[
		{
			"mesh":0,
			"name":"Cultist"
		}
	],
	"materials":[
		{
			"doubleSided":true,
			"name":"Material.001",
			"pbrMetallicRoughness":{
				"baseColorTexture":{
					"index":0
				},
				"metallicFactor":0,
				"roughnessFactor":0.5
			}
		}
	],
	"meshes":[
		{
			"name":"cultist<convex>",
			"primitives":[
				{
					"attributes":{
						"POSITION":0,
						"NORMAL":1,
						"TEXCOORD_0":2
					},
					"indices":3,
					"material":0
				}
			]
		}
	],
	"textures":[
		{
			"sampler":0,
			"source":0
		}
	],
	"images":[
		{
			"bufferView":4,
			"mimeType":"image/png",
			"name":"dirt_01"
		}
	],
	"accessors":[
		{
			"bufferView":0,
			"componentType":5126,
			"count":799,
			"max":[
				2.0849647521972656,
				3.2476983070373535,
				2.661001205444336
			],
			"min":[
				-1.8056180477142334,
				-2.2275521755218506,
				-2.661001205444336
			],
			"type":"VEC3"
		},
		{
			"bufferView":1,
			"componentType":5126,
			"count":799,
			"type":"VEC3"
		},
		{
			"bufferView":2,
			"componentType":5126,
			"count":799,
			"type":"VEC2"
		},
		{
			"bufferView":3,
			"componentType":5123,
			"count":4578,
			"type":"SCALAR"
		}
	],
	"bufferViews":[
		{
			"buffer":0,
			"byteLength":9588,
			"byteOffset":0,
			"target":34962
		},
		{
			"buffer":0,
			"byteLength":9588,
			"byteOffset":9588,
			"target":34962
		},
		{
			"buffer":0,
			"byteLength":6392,
			"byteOffset":19176,
			"target":34962
		},
		{
			"buffer":0,
			"byteLength":9156,
			"byteOffset":25568,
			"target":34963
		},
		{
			"buffer":0,
			"byteLength":1126742,
			"byteOffset":34724
		}
	],
	"samplers":[
		{
			"magFilter":9729,
			"minFilter":9987
		}
	],
	"buffers":[
		{
			"byteLength":1161468,
			"uri":"data:application/octet-stream;base64,"
		}
	]
}
