{
	"asset":{
		"generator":"Khronos glTF Blender I/O v4.0.44",
		"version":"2.0"
	},
	"scene":0,
	"scenes":[
		{
			"name":"Scene",
			"nodes":[
				0
			]
		}
	],
	"nodes":[
		{
			"mesh":0,
			"name":"Cultist.002"
		}
	],
	"materials":[
		{
			"doubleSided":true,
			"name":"Material.002",
			"pbrMetallicRoughness":{
				"baseColorTexture":{
					"index":0
				},
				"metallicFactor":0,
				"roughnessFactor":0.5
			}
		}
	],
	"meshes":[
		{
			"name":"Cultist<convex>.001",
			"primitives":[
				{
					"attributes":{
						"POSITION":0,
						"NORMAL":1,
						"TEXCOORD_0":2
					},
					"indices":3,
					"material":0
				}
			]
		}
	],
	"textures":[
		{
			"sampler":0,
			"source":0
		}
	],
	"images":[
		{
			"mimeType":"image/png",
			"name":"painted_noise",
			"uri":"painted_noise.png"
		}
	],
	"accessors":[
		{
			"bufferView":0,
			"componentType":5126,
			"count":8743,
			"max":[
				1.7468959093093872,
				4.281653881072998,
				1.6852266788482666
			],
			"min":[
				-1.8925042152404785,
				-0.4578709900379181,
				-1.799659252166748
			],
			"type":"VEC3"
		},
		{
			"bufferView":1,
			"componentType":5126,
			"count":8743,
			"type":"VEC3"
		},
		{
			"bufferView":2,
			"componentType":5126,
			"count":8743,
			"type":"VEC2"
		},
		{
			"bufferView":3,
			"componentType":5123,
			"count":42828,
			"type":"SCALAR"
		}
	],
	"bufferViews":[
		{
			"buffer":0,
			"byteLength":104916,
			"byteOffset":0,
			"target":34962
		},
		{
			"buffer":0,
			"byteLength":104916,
			"byteOffset":104916,
			"target":34962
		},
		{
			"buffer":0,
			"byteLength":69944,
			"byteOffset":209832,
			"target":34962
		},
		{
			"buffer":0,
			"byteLength":85656,
			"byteOffset":279776,
			"target":34963
		}
	],
	"samplers":[
		{
			"magFilter":9729,
			"minFilter":9987
		}
	],
	"buffers":[
		{
			"byteLength":365432,
			"uri":"eldrich_pillar_base.bin"
		}
	]
}
