{
	"asset":{
		"generator":"Khronos glTF Blender I/O v3.6.27",
		"version":"2.0"
	},
	"extensionsUsed":[
		"KHR_materials_ior"
	],
	"scene":0,
	"scenes":[
		{
			"name":"Scene",
			"nodes":[
				0,
				1
			]
		}
	],
	"nodes":[
		{
			"mesh":0,
			"name":"Lower_skull"
		},
		{
			"mesh":1,
			"name":"Upper_skull"
		}
	],
	"materials":[
		{
			"doubleSided":true,
			"extensions":{
				"KHR_materials_specular":{
					"specularColorFactor":[
						0,
						0,
						0
					]
				},
				"KHR_materials_ior":{
					"ior":1.4500000476837158
				}
			},
			"name":"defaultMat",
			"pbrMetallicRoughness":{
				"baseColorTexture":{
					"index":0
				},
				"metallicFactor":0
			}
		}
	],
	"meshes":[
		{
			"name":"Lower_skull",
			"primitives":[
				{
					"attributes":{
						"COLOR_0":0,
						"POSITION":1,
						"NORMAL":2,
						"TEXCOORD_0":3
					},
					"indices":4,
					"material":0
				}
			]
		},
		{
			"name":"Upper_skull",
			"primitives":[
				{
					"attributes":{
						"COLOR_0":5,
						"POSITION":6,
						"NORMAL":7,
						"TEXCOORD_0":8
					},
					"indices":9,
					"material":0
				}
			]
		}
	],
	"textures":[
		{
			"sampler":0,
			"source":0
		}
	],
	"images":[
		{
			"bufferView":5,
			"mimeType":"image/png",
			"name":"white"
		}
	],
	"accessors":[
		{
			"bufferView":0,
			"componentType":5123,
			"count":150,
			"normalized":true,
			"type":"VEC4"
		},
		{
			"bufferView":1,
			"componentType":5126,
			"count":150,
			"max":[
				0.8234246969223022,
				-0.1962103545665741,
				0.23229533433914185
			],
			"min":[
				-0.8099836111068726,
				-1.8501439094543457,
				-0.8085053563117981
			],
			"type":"VEC3"
		},
		{
			"bufferView":2,
			"componentType":5126,
			"count":150,
			"type":"VEC3"
		},
		{
			"bufferView":3,
			"componentType":5126,
			"count":150,
			"type":"VEC2"
		},
		{
			"bufferView":4,
			"componentType":5123,
			"count":660,
			"type":"SCALAR"
		},
		{
			"bufferView":6,
			"componentType":5123,
			"count":251,
			"normalized":true,
			"type":"VEC4"
		},
		{
			"bufferView":7,
			"componentType":5126,
			"count":251,
			"max":[
				0.9120578169822693,
				1.1605377197265625,
				1.0944838523864746
			],
			"min":[
				-0.9301030039787292,
				-0.9315976500511169,
				-1.4734816551208496
			],
			"type":"VEC3"
		},
		{
			"bufferView":8,
			"componentType":5126,
			"count":251,
			"type":"VEC3"
		},
		{
			"bufferView":9,
			"componentType":5126,
			"count":251,
			"type":"VEC2"
		},
		{
			"bufferView":10,
			"componentType":5123,
			"count":1266,
			"type":"SCALAR"
		}
	],
	"bufferViews":[
		{
			"buffer":0,
			"byteLength":1200,
			"byteOffset":0,
			"target":34962
		},
		{
			"buffer":0,
			"byteLength":1800,
			"byteOffset":1200,
			"target":34962
		},
		{
			"buffer":0,
			"byteLength":1800,
			"byteOffset":3000,
			"target":34962
		},
		{
			"buffer":0,
			"byteLength":1200,
			"byteOffset":4800,
			"target":34962
		},
		{
			"buffer":0,
			"byteLength":1320,
			"byteOffset":6000,
			"target":34963
		},
		{
			"buffer":0,
			"byteLength":951,
			"byteOffset":7320
		},
		{
			"buffer":0,
			"byteLength":2008,
			"byteOffset":8272,
			"target":34962
		},
		{
			"buffer":0,
			"byteLength":3012,
			"byteOffset":10280,
			"target":34962
		},
		{
			"buffer":0,
			"byteLength":3012,
			"byteOffset":13292,
			"target":34962
		},
		{
			"buffer":0,
			"byteLength":2008,
			"byteOffset":16304,
			"target":34962
		},
		{
			"buffer":0,
			"byteLength":2532,
			"byteOffset":18312,
			"target":34963
		}
	],
	"samplers":[
		{
			"magFilter":9729,
			"minFilter":9987
		}
	],
	"buffers":[
		{
			"byteLength":20844,
			"uri":"data:application/octet-stream;base64,"
		}
	]
}
