# Blender 3.4.1
# www.blender.org
mtllib room_0.mtl
o Cube
v -59.999996 -1.118737 50.000000
v -59.999996 15.881263 50.000000
v -59.999996 -1.118737 -50.000000
v -59.999996 15.881263 -50.000000
v -28.986479 15.881263 50.000000
v 79.999992 15.881263 50.000000
v 79.999992 -1.118737 -50.000000
v 79.999992 15.881263 -50.000000
v -59.999996 -1.118737 -25.000002
v -28.986479 -1.118737 -50.000000
v -59.999996 -1.118737 24.999998
v -59.999996 15.881263 24.999998
v -59.999996 15.881263 -0.000002
v -59.999996 15.881263 -25.000002
v 79.999992 -1.118737 24.999998
v 79.999992 -1.118737 -0.000002
v 79.999992 -1.118737 -25.000002
v 79.999992 15.881263 -25.000002
v 79.999992 15.881263 -0.000002
v 79.999992 15.881263 24.999998
v 38.885998 -1.118737 -50.000000
v 38.885998 15.881263 -50.000000
v -28.986481 -1.118737 50.000000
v 38.885998 15.881263 50.000000
v 38.885998 -1.118737 -25.000002
v 38.885998 -1.118737 -0.000002
v -28.986481 15.881263 -50.000000
v -45.945019 2.067949 23.460875
v 79.999992 -1.118737 50.000000
v 38.885998 -1.118737 23.460875
v 79.999992 6.471030 -0.000002
v 79.999992 6.471030 -25.000002
v 38.885998 6.471030 -25.000002
v 38.885998 6.471030 -0.000002
v 38.885998 -1.118737 24.999998
v 79.999992 3.812515 -25.000002
v 79.999992 3.812515 -0.000002
v 38.885998 6.014622 -25.000002
v -59.999996 15.881263 23.460875
v -31.890049 6.471030 23.460875
v 38.885998 6.014622 -0.000002
v -3.780099 6.471030 23.460875
v 38.885998 -1.118737 50.000000
v -3.804683 6.471030 -25.000002
v -3.804683 6.471030 -0.000002
v -3.804683 6.014622 -0.000002
v -3.804683 6.014622 -25.000002
v -59.999996 -1.118737 -22.534674
v -59.999996 -1.118737 -2.465329
v -59.999996 15.881263 -2.465331
v -59.999996 15.881263 -22.534678
v 79.999992 -1.118737 -2.465331
v 79.999992 -1.118737 -22.534678
v 79.999992 15.881263 -22.534674
v 79.999992 15.881263 -2.465329
v 38.885998 -1.118737 -22.534674
v 38.885998 -1.118737 -2.465329
v 79.999992 6.471030 -2.465331
v 79.999992 6.471030 -22.534678
v 38.885998 6.471030 -22.534674
v 38.885998 6.471030 -2.465329
v 38.885998 6.014622 -22.534674
v 38.885998 6.014622 -2.465329
v 79.999992 3.812515 -2.465331
v 79.999992 3.812515 -22.534678
v -3.804683 6.471030 -22.534674
v -3.804683 6.471030 -2.465329
v -3.804683 6.014622 -22.534674
v -3.804683 6.014622 -2.465329
v -3.780099 -1.118737 -50.000000
v -3.780099 15.881263 50.000000
v -3.780099 -1.118737 -25.000002
v -3.780099 -1.118737 -0.000002
v -3.780099 -1.118737 24.999998
v -3.780099 15.881263 -50.000000
v -3.780099 -1.118737 50.000000
v -3.780099 -1.118737 -22.534674
v -3.780099 -1.118737 -2.465329
v -31.890049 -1.118737 -50.000000
v -31.890049 15.881263 50.000000
v -31.890049 -1.118737 -25.000002
v -31.890049 -1.118737 -0.000002
v -31.890049 -1.118737 24.999998
v -31.890049 -1.118737 -22.534674
v -31.890049 -1.118737 -2.465329
v -31.890051 15.881263 -50.000000
v -31.890051 -1.118737 50.000000
v -59.999996 6.471030 -0.000002
v -59.999996 2.067949 24.999998
v -31.890049 6.471030 -0.000002
v -31.890049 6.471030 24.999998
v -3.780099 6.471030 -22.534674
v -3.780099 6.471030 -2.465329
v -3.780099 6.471030 -25.000002
v -3.780099 6.471030 -0.000002
v -3.780099 6.471030 24.999998
v -31.890049 6.471030 -25.000002
v -31.890049 6.471030 -22.534674
v -31.890049 6.471030 -2.465329
v -45.945019 -1.118737 -50.000000
v -45.945019 15.881263 50.000000
v -45.945019 -1.118737 -25.000002
v -59.999996 2.067949 23.460875
v -45.945019 -1.118737 24.999998
v -45.945019 -1.118737 -22.534674
v -45.945019 -1.118737 -2.465329
v -45.945023 15.881263 -50.000000
v -45.945023 -1.118737 50.000000
v -45.945019 6.471030 -0.000002
v -45.945019 2.067949 24.999998
v -59.999996 -1.118737 12.499999
v -59.999996 15.881263 12.499999
v 79.999992 -1.118737 12.499999
v 79.999992 15.881263 12.499999
v 38.885998 -1.118737 12.499999
v 79.999992 2.676147 12.499999
v 38.885998 2.676147 12.499999
v 79.999992 1.346889 12.499999
v 38.885998 1.346889 12.499999
v -3.780099 -1.118737 12.499999
v -59.999996 2.067949 12.499999
v -3.780099 6.471030 12.499999
v -31.890049 6.471030 12.499999
v -3.780099 -1.118737 23.460875
v -45.945019 -1.118737 -0.000002
v -59.999996 -1.118737 -0.000002
v -59.999996 -1.118737 23.460875
v -45.945019 2.067949 12.499999
v -45.945019 6.471030 12.499999
v -28.986479 -1.118737 -25.000002
v -28.986479 -1.118737 24.999998
v -28.986479 6.471030 -25.000002
v -28.986479 6.471030 -0.000002
v -28.986479 6.471030 24.999998
v -28.986479 6.471030 -22.534674
v -28.986479 6.471030 -2.465329
v -28.986479 6.471030 23.460875
v -28.986479 6.471030 12.499999
v -29.061291 9.212339 -22.534674
v -29.061291 9.212339 -2.465329
v -29.061291 9.212339 -25.000002
v -29.061291 9.212339 -0.000002
v 79.925179 9.212339 -22.534678
v 79.925179 9.212339 -25.000002
v 38.811184 9.212339 -25.000002
v -29.061291 9.212339 23.460875
v -29.061291 9.212339 24.999998
v 38.811184 9.212339 -2.465329
v 38.811184 9.212339 -0.000002
v -3.854911 9.212339 23.460875
v -3.854911 9.212339 -22.534674
v -3.854911 9.212339 24.999998
v -3.854911 9.212339 -25.000002
v -3.879495 9.212339 -2.465329
v -3.879495 9.212339 -0.000002
v -3.879495 9.212339 -25.000002
v 38.811184 9.212339 -22.534674
v -3.879495 9.212339 -22.534674
v -60.074810 4.809258 23.460875
v -60.074810 4.809258 24.999998
v -46.019833 4.809258 24.999998
v -31.964861 9.212339 -25.000002
v -31.964861 9.212339 -0.000002
v -31.964861 9.212339 24.999998
v -31.964861 9.212339 -22.534674
v -31.964861 9.212339 -2.465329
v -31.964861 9.212339 23.460875
v -46.019833 4.809258 23.460875
vn 1.0000 -0.0000 -0.0000
vn -0.0000 -0.0000 1.0000
vn -1.0000 -0.0000 -0.0000
vn -0.0000 -0.0000 -1.0000
vn -0.0000 1.0000 -0.0000
vn -0.0000 0.9569 0.2905
vn -0.2989 0.9543 -0.0000
vn -0.0000 -1.0000 -0.0000
vn 0.9996 0.0273 -0.0000
vn -0.9996 -0.0273 -0.0000
vn -0.0000 0.9690 -0.2470
vt 0.614096 0.000000
vt 0.881781 0.524879
vt 0.524864 0.735229
vt 0.524866 0.000000
vt 0.875000 0.750000
vt 0.792553 0.524879
vt 0.881781 0.000000
vt 0.703325 0.734833
vt 0.000000 0.735275
vt 0.792553 0.000000
vt 0.875000 0.500000
vt 0.614096 0.734833
vt 0.819619 0.750000
vt 0.524866 0.162785
vt 0.703325 0.000000
vt 0.625000 0.750000
vt 0.524866 0.734829
vt 0.703325 0.000000
vt 0.000000 0.000496
vt 0.792553 0.524879
vt 0.614096 0.000000
vt 0.625000 0.500000
vt 0.703325 0.524879
vt 0.881781 0.131218
vt 0.131218 0.735268
vt 0.000000 0.572502
vt 0.703325 0.572044
vt 0.695919 0.734829
vt 0.834544 0.525272
vt 0.393650 0.735245
vt 0.881781 0.393658
vt 0.875000 0.687500
vt 0.792553 0.393658
vt 0.792553 0.262440
vt 0.875000 0.625000
vt 0.792553 0.131218
vt 0.875000 0.562500
vt 0.792553 0.131218
vt 0.393650 0.000465
vt 0.888770 0.524878
vt 0.888770 0.656097
vt 0.792553 0.262440
vt 0.131218 0.000488
vt 0.881781 0.000000
vt 0.888770 0.787317
vt 0.792553 0.393658
vt 0.703325 0.393658
vt 0.625000 0.562500
vt 0.703325 0.262440
vt 0.625000 0.625000
vt 0.625000 0.687500
vt 0.703325 0.131218
vt 0.000000 0.216286
vt 0.703325 0.215797
vt 0.698418 0.500000
vt 0.614096 0.215797
vt 0.614096 0.162785
vt 0.524864 0.572464
vt 0.698418 0.750000
vt 0.524866 0.519032
vt 0.975842 0.524879
vt 0.881781 0.215797
vt 0.131218 0.216270
vt 0.975842 0.393660
vt 0.262432 0.216263
vt 0.819619 0.500000
vt 0.614096 0.572044
vt 0.385460 0.661278
vt 0.972672 0.598251
vt 0.792553 0.000000
vt 0.614096 0.734829
vt 0.524864 0.000458
vt 0.385571 0.216248
vt 0.975842 0.270517
vt 0.928606 0.656097
vt 0.262165 0.000000
vt 0.928606 0.787317
vt 0.921618 0.000000
vt 0.921618 0.215797
vt 0.936006 0.393660
vt 0.262165 0.215782
vt 0.110848 0.959742
vt 0.365816 0.735275
vt 0.393650 0.216248
vt 0.975842 0.262440
vt 0.907664 0.000000
vt 0.914652 0.787317
vt 0.914652 0.656097
vt 0.938402 0.524879
vt 0.834544 0.524879
vt 0.919222 0.215797
vt 0.875000 0.683652
vt 0.792553 0.385578
vt 0.385303 0.587234
vt 0.957348 0.674026
vt 0.108452 0.959742
vt 0.703325 0.524879
vt 0.938402 0.393660
vt 0.385303 0.439705
vt 0.972672 0.820770
vt 0.950397 0.254360
vt 0.524864 0.216240
vt 0.614096 0.519032
vt 0.921618 0.439873
vt 0.284202 0.866495
vt 0.110848 0.735668
vt 0.284202 0.735275
vt 0.108452 0.735668
vt 0.703325 0.748955
vt 0.286597 0.735275
vt 0.286597 0.866495
vt 0.834544 0.748955
vt 0.919222 0.439873
vt 0.881781 0.144161
vt 0.144157 0.735268
vt 0.881781 0.249500
vt 0.249493 0.735252
vt 0.792553 0.249500
vt 0.875000 0.604167
vt 0.792553 0.144161
vt 0.875000 0.583333
vt 0.888770 0.669037
vt 0.792553 0.275379
vt 0.888770 0.774376
vt 0.792553 0.380718
vt 0.703325 0.380718
vt 0.625000 0.583333
vt 0.703325 0.275379
vt 0.625000 0.604167
vt 0.975842 0.511938
vt 0.144157 0.216270
vt 0.975842 0.406599
vt 0.249493 0.216263
vt 0.249226 0.000000
vt 0.928606 0.669037
vt 0.143890 0.000008
vt 0.928606 0.774376
vt 0.972672 0.965143
vt 0.143890 0.215790
vt 0.972672 0.749344
vt 0.249226 0.215782
vt 0.125237 0.735275
vt 0.352876 0.735275
vt 0.821604 0.524879
vt 0.938402 0.511938
vt 0.716265 0.524879
vt 0.938402 0.406599
vt 0.914652 0.669037
vt 0.914652 0.774376
vt 0.143890 0.439850
vt 0.284202 0.853555
vt 0.972672 0.525270
vt 0.249226 0.439842
vt 0.125237 0.959351
vt 0.284202 0.748215
vt 0.821604 0.748955
vt 0.286597 0.853555
vt 0.716265 0.748955
vt 0.286597 0.748215
vt 0.703325 0.439743
vt 0.000000 0.440208
vt 0.774607 0.750000
vt 0.524866 0.295086
vt 0.990233 0.000000
vt 0.131218 0.440201
vt 0.000000 0.735276
vt 0.990233 0.131220
vt 0.262432 0.440193
vt 0.393650 0.440178
vt 0.990233 0.262440
vt 0.834544 0.820358
vt 0.774607 0.500000
vt 0.614096 0.439743
vt 0.524864 0.440170
vt 0.614096 0.295086
vt 0.144157 0.440201
vt 0.990233 0.012939
vt 0.249493 0.440193
vt 0.990233 0.118280
vt 0.000000 0.587746
vt 0.703325 0.587288
vt 0.824804 0.750000
vt 0.524866 0.147541
vt 0.108453 0.866495
vt 0.000000 0.882818
vt 0.131218 0.587730
vt 0.108453 0.735275
vt 0.262432 0.587723
vt 0.179462 0.809048
vt 0.834544 0.672813
vt 0.393650 0.587715
vt 0.144157 0.587730
vt 0.108453 0.853555
vt 0.249493 0.587723
vt 0.108453 0.748215
vt 0.824804 0.500000
vt 0.614096 0.587288
vt 0.614096 0.147541
vt 0.524864 0.587700
vt 0.656083 0.866049
vt 0.229975 0.804836
vt 0.679193 0.734829
vt 0.851270 0.525272
vt 0.139625 0.809048
vt 0.262165 0.587242
vt 0.068616 0.735275
vt 0.338488 0.735670
vt 0.874381 0.672813
vt 0.950397 0.012939
vt 0.143890 0.439720
vt 0.286598 0.867971
vt 0.249226 0.439713
vt 0.950397 0.118280
vt 0.950397 0.000000
vt 0.039837 0.735276
vt 0.950397 0.131220
vt 0.262165 0.439713
vt 0.950397 0.262440
vt 0.874381 0.820358
vt 0.068616 0.866495
vt 0.039837 0.882818
vt 0.068616 0.853555
vt 0.068616 0.748215
vt 0.703325 0.661057
vt 0.000000 0.661507
vt 0.849902 0.750000
vt 0.524866 0.073772
vt 0.131218 0.661499
vt 0.385460 0.735046
vt 0.679193 0.742907
vt 0.965010 0.524879
vt 0.834544 0.599045
vt 0.393650 0.661476
vt 0.144157 0.661499
vt 0.249493 0.661491
vt 0.849902 0.500000
vt 0.614096 0.661057
vt 0.524864 0.661469
vt 0.614096 0.073772
vt 0.139625 0.735275
vt 0.229976 0.800885
vt 0.262165 0.661011
vt 0.851270 0.599045
vt 0.695919 0.800438
vt 0.881781 0.328049
vt 0.792553 0.328049
vt 0.875000 0.656250
vt 0.888770 0.590487
vt 0.792553 0.196831
vt 0.703325 0.196831
vt 0.625000 0.656250
vt 0.975842 0.328049
vt 0.328041 0.216255
vt 0.908688 0.590487
vt 0.327908 0.000237
vt 0.955925 0.328049
vt 0.327908 0.216019
vt 0.901711 0.590487
vt 0.962901 0.328049
vt 0.990233 0.196829
vt 0.328041 0.440186
vt 0.679193 0.800438
vt 0.327930 0.735046
vt 0.229975 0.735275
vt 0.950397 0.196829
vt 0.327774 0.439705
vt 0.300986 0.735275
vt 0.327774 0.587242
vt 0.385571 0.440178
vt 0.990233 0.254360
vt 0.179462 0.735275
vt 0.262432 0.661491
vt 0.269812 0.800885
vt 0.881781 0.262440
vt 0.695919 0.866049
vt 0.262432 0.735252
vt 0.192402 0.791601
vt 0.695919 0.742907
vt 0.881781 0.385578
vt 0.327930 0.661285
vt 0.253086 0.735275
vt 0.324097 0.809046
vt 0.229976 0.735275
vt 0.327774 0.661003
vt 0.300986 0.809046
vt 0.000000 0.867578
vt 0.131218 0.572495
vt 0.834544 0.688057
vt 0.393650 0.572472
vt 0.039837 0.867578
vt 0.262165 0.572006
vt 0.338487 0.853556
vt 0.338488 0.750910
vt 0.874381 0.688057
vt 0.143890 0.572014
vt 0.338487 0.735275
vt 0.286598 0.735668
vt 0.249226 0.572006
vt 0.338487 0.840614
vt 0.385303 0.571991
vt 0.958930 0.689182
vt 0.327774 0.571999
vt 0.324097 0.735275
vt 0.643143 0.750069
vt 0.300986 0.735275
vt 0.537806 0.750078
vt 0.324097 0.840614
vt 0.656083 0.750069
vt 0.054226 0.867971
vt 0.524866 0.750078
vt 0.324097 0.853556
vt 0.352876 0.750517
vt 1.000000 0.524879
vt 0.942996 0.774376
vt 0.987061 0.964750
vt 0.987061 0.524879
vt 0.942996 0.787317
vt 0.936006 0.000389
vt 0.987061 0.740662
vt 0.936006 0.216194
vt 0.990244 0.132293
vt 0.944579 0.690285
vt 0.998322 0.132298
vt 0.888770 0.687664
vt 0.139625 0.735668
vt 0.179462 0.735275
vt 0.352876 0.749666
vt 0.125237 0.959349
vt 0.192402 0.735275
vt 0.365816 0.749666
vt 0.990335 0.000000
vt 0.958320 0.821873
vt 0.936007 0.254360
vt 0.936007 0.012939
vt 0.643143 0.882362
vt 0.300986 0.867579
vt 0.998413 0.000005
vt 0.936007 0.262440
vt 0.888770 0.819965
vt 0.936007 0.000000
vt 0.054226 0.735668
vt 0.656083 0.882360
vt 0.139625 0.959743
vt 0.179462 0.959335
vt 0.269812 0.748215
vt 0.125237 0.735276
vt 0.192402 0.959332
vt 0.269812 0.735275
vt 0.936006 0.440262
vt 0.987061 0.964722
vt 0.269812 0.866495
vt 1.000000 0.740662
vt 0.987061 0.748952
vt 1.000000 0.964722
vt 0.269812 0.853555
vt 0.987061 0.524878
vt 0.664803 0.742907
vt 0.990284 0.295342
vt 0.950658 0.525982
vt 0.865659 0.524879
vt 0.664803 0.734829
vt 0.998362 0.295347
vt 0.998413 0.221581
vt 0.865659 0.598652
vt 0.054226 0.866495
vt 0.656083 0.734829
vt 0.054226 0.883211
vt 0.054226 0.735275
vt 0.524866 0.734840
vt 0.352876 0.735277
vt 0.998310 0.147537
vt 0.888770 0.672421
vt 0.054226 0.853555
vt 0.643143 0.734831
vt 0.054226 0.748215
vt 0.537806 0.734838
vt 0.990232 0.147532
vt 0.942996 0.675129
vt 0.990335 0.221576
vt 0.958320 0.599358
s 0
f 9/24/1 3/7/1 4/10/1 14/36/1
f 21/54/2 7/18/2 8/21/2 22/56/2
f 15/38/3 29/70/3 6/15/3 20/52/3
f 108/239/4 1/1/4 2/4/4 101/227/4
f 120/261/5 124/269/5 30/73/5 115/253/5
f 20/51/5 12/32/5 2/5/5 101/226/5 80/182/5 5/13/5 71/162/5 24/59/5 6/16/5
f 8/22/5 22/55/5 75/172/5 27/66/5 86/196/5 107/236/5 4/11/5 14/37/5 18/48/5
f 55/129/5 50/119/5 13/35/5 19/50/5
f 114/251/5 112/247/5 39/92/5 12/32/5 20/51/5
f 21/53/5 25/63/5 17/43/5 7/19/5
f 38/91/4 33/79/4 32/78/4 36/86/4
f 64/148/1 58/135/1 31/75/1 37/88/1
f 7/20/3 17/46/3 18/47/3 8/23/3
f 52/123/3 16/42/3 19/49/3 55/128/3
f 113/249/3 15/38/3 20/52/3 114/250/3
f 1/2/1 11/31/1 12/33/1 2/6/1
f 111/245/1 126/274/1 13/34/1 112/246/1
f 48/114/1 9/24/1 14/36/1 51/120/1
f 124/269/5 74/169/5 35/84/5 30/73/5
f 78/178/5 73/168/5 26/65/5 57/133/5
f 70/161/5 72/165/5 25/63/5 21/53/5
f 74/169/5 76/174/5 43/102/5 35/84/5
f 29/71/4 43/103/4 24/60/4 6/17/4
f 70/160/2 21/54/2 22/56/2 75/173/2
f 35/84/5 43/102/5 29/72/5 15/39/5
f 61/141/5 34/81/5 31/76/5 58/134/5
f 117/257/6 35/84/6 15/39/6 116/255/6
f 119/259/3 117/256/3 34/80/3 41/98/3
f 138/302/5 137/300/5 42/99/5 122/266/5
f 118/258/1 116/254/1 15/40/1
f 128/280/7 28/68/7 40/94/7 123/268/7
f 34/82/2 45/106/2 46/108/2 41/96/2
f 56/130/3 62/145/3 38/89/3 25/61/3
f 120/260/1 122/265/1 42/101/1 124/270/1
f 113/248/1 118/258/1 15/40/1
f 121/263/5 103/229/5 28/68/5 128/280/5
f 115/252/3 119/259/3 41/98/3 26/64/3
f 52/122/1 64/148/1 37/88/1 16/41/1
f 25/62/4 38/91/4 36/86/4 17/44/4
f 11/28/3 89/202/3 103/230/3 127/278/3
f 68/157/3 66/151/3 44/105/3 47/111/3
f 62/144/8 68/156/8 47/112/8 38/90/8
f 38/91/4 47/113/4 44/104/4 33/79/4
f 94/214/9 153/340/9 151/334/9 92/209/9
f 44/104/4 156/349/4 145/320/4 33/79/4
f 60/139/5 66/150/5 67/153/5 61/141/5
f 41/97/8 46/109/8 69/158/8 63/146/8
f 63/146/8 69/158/8 68/156/8 62/144/8
f 46/110/3 45/107/3 67/155/3 69/159/3
f 69/159/3 67/155/3 66/151/3 68/157/3
f 17/45/1 36/87/1 65/149/1 53/124/1
f 53/124/1 65/149/1 64/148/1 52/122/1
f 26/64/3 41/98/3 63/147/3 57/132/3
f 57/132/3 63/147/3 62/145/3 56/130/3
f 110/243/2 161/364/2 160/360/2 89/203/2
f 60/139/5 61/141/5 58/134/5 59/136/5
f 72/165/5 77/176/5 56/131/5 25/63/5
f 77/176/5 78/178/5 57/133/5 56/131/5
f 126/274/1 49/116/1 50/118/1 13/34/1
f 49/116/1 48/114/1 51/120/1 50/118/1
f 17/46/3 53/125/3 54/126/3 18/47/3
f 53/125/3 52/123/3 55/128/3 54/126/3
f 36/87/1 32/77/1 59/137/1 65/149/1
f 65/149/1 59/137/1 58/135/1 64/148/1
f 18/48/5 14/37/5 51/121/5 54/127/5
f 54/127/5 51/121/5 50/119/5 55/129/5
f 111/244/3 121/262/3 88/200/3 126/275/3
f 72/164/1 94/214/1 92/209/1 77/177/1
f 10/27/2 70/160/2 75/173/2 27/67/2
f 131/289/5 23/58/5 76/174/5 74/169/5
f 10/26/5 130/287/5 72/165/5 70/161/5
f 82/187/3 90/206/3 99/223/3 85/195/3
f 77/177/1 92/209/1 93/213/1 78/179/1
f 43/103/4 76/175/4 71/163/4 24/60/4
f 130/286/4 132/290/4 94/215/4 72/166/4
f 106/235/5 125/272/5 82/188/5 85/194/5
f 100/225/5 102/228/5 81/186/5 79/180/5
f 104/233/5 108/238/5 87/199/5 83/191/5
f 100/224/2 79/181/2 86/197/2 107/237/2
f 102/228/5 105/234/5 84/192/5 81/186/5
f 105/234/5 106/235/5 85/194/5 84/192/5
f 23/57/4 87/198/4 80/183/4 5/14/4
f 135/295/5 136/298/5 93/212/5 92/210/5
f 135/296/9 139/303/9 140/307/9 136/299/9
f 136/298/5 133/291/5 95/217/5 93/212/5
f 99/223/10 166/375/10 165/373/10 98/222/10
f 89/202/10 160/361/10 159/357/10 103/230/10
f 84/193/3 98/222/3 97/220/3 81/184/3
f 78/179/1 93/213/1 95/216/1 73/167/1
f 125/271/4 109/240/4 90/204/4 82/189/4
f 131/288/2 134/294/2 91/208/2 83/190/2
f 85/195/3 99/223/3 98/222/3 84/193/3
f 124/270/1 42/101/1 96/218/1 74/170/1
f 104/232/2 110/243/2 89/203/2 11/29/2
f 83/190/2 91/208/2 110/243/2 104/232/2
f 98/222/10 165/373/10 162/365/10 97/220/10
f 48/115/5 49/117/5 106/235/5 105/234/5
f 9/25/5 48/115/5 105/234/5 102/228/5
f 3/8/2 100/224/2 107/237/2 4/12/2
f 11/30/5 1/3/5 108/238/5 104/233/5
f 3/9/5 9/25/5 102/228/5 100/225/5
f 49/117/5 126/276/5 125/272/5 106/235/5
f 87/198/4 108/239/4 101/227/4 80/183/4
f 11/31/1 127/279/1 39/93/1 12/33/1
f 73/167/1 95/216/1 122/265/1 120/260/1
f 128/281/3 129/283/3 109/241/3
f 133/291/5 138/302/5 122/266/5 95/217/5
f 127/278/3 103/230/3 121/262/3 111/244/3
f 35/85/3 119/259/3 115/252/3 30/74/3
f 16/41/1 37/88/1 118/258/1 113/248/1
f 37/88/1 31/75/1 116/254/1 118/258/1
f 35/85/3 117/256/3 119/259/3
f 34/81/6 117/257/6 116/255/6 31/76/6
f 73/168/5 120/261/5 115/253/5 26/65/5
f 127/279/1 111/245/1 112/246/1 39/93/1
f 16/42/3 113/249/3 114/250/3 19/49/3
f 19/50/5 13/35/5 112/247/5 114/251/5
f 126/276/11 121/263/11 128/280/11 125/272/11
f 121/264/1 126/277/1 88/201/1
f 109/241/3 125/273/3 128/281/3
f 109/242/5 129/284/5 123/268/5 90/205/5
f 128/282/2 123/267/2 129/285/2
f 90/205/5 123/268/5 138/302/5 133/291/5
f 74/171/2 96/219/2 134/294/2 131/288/2
f 34/82/2 149/328/2 155/346/2 45/106/2
f 132/290/4 141/309/4 153/341/4 94/215/4
f 67/154/4 154/343/4 148/325/4 61/142/4
f 90/206/10 163/368/10 166/375/10 99/223/10
f 76/175/4 23/57/4 5/14/4 71/163/4
f 81/185/4 97/221/4 132/290/4 130/286/4
f 79/180/5 81/186/5 130/287/5 10/26/5
f 83/191/5 87/199/5 23/58/5 131/289/5
f 79/181/2 10/27/2 27/67/2 86/197/2
f 123/268/5 40/94/5 137/300/5 138/302/5
f 148/326/5 154/344/5 155/347/5 149/329/5
f 145/319/5 156/350/5 158/354/5 157/352/5
f 145/319/5 157/352/5 143/313/5 144/316/5
f 141/308/5 139/304/5 151/335/5 153/342/5
f 146/321/5 147/323/5 152/337/5 150/331/5
f 168/379/7 161/363/7 164/371/7 167/377/7
f 159/358/5 160/362/5 161/363/5 168/379/5
f 167/377/5 164/371/5 147/323/5 146/321/5
f 166/376/5 163/369/5 142/310/5 140/306/5
f 162/366/5 165/374/5 139/304/5 141/308/5
f 165/374/5 166/376/5 140/306/5 139/304/5
f 137/301/4 146/322/4 150/332/4 42/100/4
f 136/299/9 140/307/9 142/311/9 133/292/9
f 103/231/4 159/359/4 168/380/4 28/69/4
f 42/101/9 150/333/9 152/338/9 96/218/9
f 32/77/9 144/317/9 143/314/9 59/137/9
f 97/221/4 162/367/4 141/309/4 132/290/4
f 91/208/2 164/372/2 161/364/2 110/243/2
f 33/79/4 145/320/4 144/318/4 32/78/4
f 133/293/2 142/312/2 163/370/2 90/207/2
f 66/151/10 158/355/10 156/351/10 44/105/10
f 59/138/2 143/315/2 157/353/2 60/140/2
f 45/107/10 155/348/10 154/345/10 67/155/10
f 134/294/2 147/324/2 164/372/2 91/208/2
f 40/95/4 167/378/4 146/322/4 137/301/4
f 92/211/2 151/336/2 139/305/2 135/297/2
f 28/69/4 168/380/4 167/378/4 40/95/4
f 96/219/2 152/339/2 147/324/2 134/294/2
f 61/143/9 148/327/9 149/330/9 34/83/9
f 60/140/2 157/353/2 158/356/2 66/152/2
