# Blender 3.4.1
# www.blender.org
mtllib wall_10x10_01.mtl
o Cube.001
v -5.000000 0.000000 5.200000
v -5.000000 7.000000 5.200000
v -5.000000 0.000000 4.359079
v -5.000000 7.000000 4.800000
v 5.000000 0.000000 5.200000
v 5.000000 7.000000 5.200000
v 5.000000 0.000000 4.359079
v 5.000000 7.000000 4.800000
v -5.000000 1.258063 5.200000
v -5.000000 1.293994 4.359079
v 5.000000 1.293994 4.359079
v 5.000000 1.258063 5.200000
v -5.000000 2.190404 5.200000
v -5.000000 2.262386 4.800000
v 5.000000 2.262386 4.800000
v 5.000000 2.190404 5.200000
v 4.628504 0.000000 4.359079
v -4.628504 0.000000 4.359079
v -4.628504 7.000000 4.800000
v 4.628504 7.000000 4.800000
v -4.628504 0.000000 5.200000
v 4.628504 0.000000 5.200000
v 4.628504 7.000000 5.200000
v -4.628504 7.000000 5.200000
v 4.628504 1.258063 5.200000
v -4.628504 1.258063 5.200000
v -4.628504 1.293994 4.359079
v 4.628504 1.293994 4.359079
v 4.628504 2.190404 5.200000
v -4.628504 2.190404 5.200000
v -4.628504 2.262386 4.800000
v 4.628504 2.262386 4.800000
v -5.000000 1.347858 4.110792
v -5.000000 0.000000 4.105016
v 5.000000 7.000000 4.545938
v 5.000000 1.347858 4.110792
v 5.000000 0.000000 4.105016
v -5.000000 2.316250 4.551713
v 5.000000 2.316250 4.551713
v -5.000000 7.000000 4.545938
v -4.772126 0.000000 4.105016
v -4.628504 0.000000 4.248734
v 4.772126 7.000000 4.545938
v 4.628504 7.000000 4.689495
v 4.772126 1.347858 4.110792
v 4.628504 1.316708 4.254379
v 4.628504 2.285098 4.695307
v 4.772126 2.316250 4.551713
v 4.628504 0.000000 4.248734
v 4.772126 -0.000000 4.105016
v -4.628504 7.000000 4.689495
v -4.772126 7.000000 4.545938
v -4.628504 1.316708 4.254379
v -4.772126 1.347858 4.110792
v -4.772126 2.316250 4.551713
v -4.628504 2.285098 4.695307
vn -1.0000 -0.0000 -0.0000
vn 1.0000 -0.0000 -0.0000
vn -0.0000 -0.0000 1.0000
vn -0.0000 -1.0000 -0.0000
vn -0.0000 1.0000 -0.0000
vn -0.0000 0.4144 -0.9101
vn -0.0000 -0.0000 -1.0000
vn -0.0000 -0.0012 -1.0000
vn -0.0000 0.0043 -1.0000
vn 0.7070 0.2930 -0.6436
vn -0.7070 0.2930 -0.6436
vn 0.7073 0.0030 -0.7069
vn -0.7073 0.0030 -0.7069
vn 0.7069 -0.0009 -0.7073
vn -0.7069 -0.0009 -0.7073
vt 0.375000 1.000000
vt 0.375000 0.000000
vt 0.125000 0.750000
vt 0.625000 0.000000
vt 0.625000 1.000000
vt 0.875000 0.750000
vt 0.375000 0.250000
vt 0.125000 0.500000
vt 0.625000 0.250000
vt 0.875000 0.500000
vt 0.375000 0.750000
vt 0.625000 0.750000
vt 0.375000 0.500000
vt 0.625000 0.500000
vt 0.467383 1.000000
vt 0.467383 0.000000
vt 0.467383 0.250000
vt 0.467383 0.500000
vt 0.467383 0.750000
vt 0.500681 1.000000
vt 0.500681 0.000000
vt 0.500681 0.250000
vt 0.500681 0.500000
vt 0.500681 0.750000
vt 0.365713 0.500000
vt 0.375000 0.490713
vt 0.375000 0.259287
vt 0.134287 0.500000
vt 0.865713 0.500000
vt 0.625000 0.259287
vt 0.625000 0.490713
vt 0.634287 0.500000
vt 0.375000 0.990713
vt 0.134287 0.750000
vt 0.375000 0.759287
vt 0.365713 0.750000
vt 0.634287 0.750000
vt 0.625000 0.759287
vt 0.865713 0.750000
vt 0.625000 0.990713
vt 0.467383 0.759287
vt 0.467383 0.990713
vt 0.467383 0.259287
vt 0.467383 0.490713
vt 0.500681 0.759287
vt 0.500681 0.990713
vt 0.500681 0.259287
vt 0.500681 0.490713
vt 0.467383 0.250000
vt 0.375000 0.250000
vt 0.125000 0.500000
vt 0.625000 0.500000
vt 0.467383 0.500000
vt 0.375000 0.500000
vt 0.500681 0.250000
vt 0.500681 0.500000
vt 0.875000 0.500000
vt 0.625000 0.250000
vt 0.375000 0.255697
vt 0.130697 0.500000
vt 0.375000 0.259287
vt 0.134287 0.500000
vt 0.630697 0.500000
vt 0.625000 0.494303
vt 0.634287 0.500000
vt 0.625000 0.490713
vt 0.467383 0.494303
vt 0.467383 0.490713
vt 0.500681 0.490713
vt 0.500681 0.494303
vt 0.365713 0.500000
vt 0.375000 0.490713
vt 0.369303 0.500000
vt 0.375000 0.494303
vt 0.865713 0.500000
vt 0.625000 0.259287
vt 0.869303 0.500000
vt 0.625000 0.255697
vt 0.467383 0.259287
vt 0.467383 0.255697
vt 0.500681 0.255697
vt 0.500681 0.259287
s 0
f 13/21/1 2/4/1 4/9/1 14/22/1
f 15/23/2 11/18/2 36/53/2 39/56/2
f 15/23/2 8/14/2 6/12/2 16/24/2
f 30/46/3 24/40/3 2/5/3 13/20/3
f 17/25/4 7/13/4 5/11/4 22/36/4
f 19/29/5 4/10/5 2/6/5 24/39/5
f 21/33/3 26/42/3 9/15/3 1/1/3
f 7/13/2 11/18/2 12/19/2 5/11/2
f 14/22/1 4/9/1 40/58/1 38/55/1
f 1/2/1 9/16/1 10/17/1 3/7/1
f 26/42/3 30/46/3 13/20/3 9/15/3
f 11/18/2 15/23/2 16/24/2 12/19/2
f 33/49/6 38/55/6 55/81/6 54/80/6
f 9/16/1 13/21/1 14/22/1 10/17/1
f 11/18/2 7/13/2 37/54/2 36/53/2
f 27/43/6 31/47/6 32/48/6 28/44/6
f 12/19/3 16/24/3 29/45/3 25/41/3
f 25/41/3 29/45/3 30/46/3 26/42/3
f 4/10/5 19/29/5 51/75/5 52/77/5 40/57/5
f 18/27/7 27/43/7 28/44/7 17/26/7
f 5/11/3 12/19/3 25/41/3 22/35/3
f 22/35/3 25/41/3 26/42/3 21/33/3
f 8/14/5 20/32/5 23/37/5 6/12/5
f 20/32/5 19/29/5 24/39/5 23/37/5
f 3/8/4 18/28/4 21/34/4 1/3/4
f 18/28/4 17/25/4 22/36/4 21/34/4
f 16/24/3 6/12/3 23/38/3 29/45/3
f 29/45/3 23/38/3 24/40/3 30/46/3
f 10/17/1 14/22/1 38/55/1 33/49/1
f 31/47/7 19/30/7 20/31/7 32/48/7
f 32/48/1 20/31/1 44/66/1 47/69/1
f 7/13/4 17/25/4 49/71/4 50/73/4 37/54/4
f 17/26/1 28/44/1 46/68/1 49/72/1
f 31/47/2 27/43/2 53/79/2 56/82/2
f 27/43/2 18/27/2 42/61/2 53/79/2
f 19/30/2 31/47/2 56/82/2 51/76/2
f 45/67/6 48/70/6 39/56/6 36/53/6
f 8/14/2 15/23/2 39/56/2 35/52/2
f 38/55/8 40/58/8 52/78/8 55/81/8
f 50/74/9 45/67/9 36/53/9 37/54/9
f 3/7/1 10/17/1 33/49/1 34/50/1
f 20/32/5 8/14/5 35/52/5 43/63/5 44/65/5
f 34/50/9 33/49/9 54/80/9 41/59/9
f 28/44/1 32/48/1 47/69/1 46/68/1
f 48/70/8 43/64/8 35/52/8 39/56/8
f 56/82/10 53/79/10 54/80/10 55/81/10
f 48/70/11 45/67/11 46/68/11 47/69/11
f 53/79/12 42/61/12 41/59/12 54/80/12
f 45/67/13 50/74/13 49/72/13 46/68/13
f 51/76/14 56/82/14 55/81/14 52/78/14
f 43/64/15 48/70/15 47/69/15 44/66/15
f 18/28/4 3/8/4 34/51/4 41/60/4 42/62/4
