{
	"asset":{
		"generator":"Khronos glTF Blender I/O v3.6.27",
		"version":"2.0"
	},
	"scene":0,
	"scenes":[
		{
			"name":"Scene",
			"nodes":[
				0
			]
		}
	],
	"nodes":[
		{
			"mesh":0,
			"name":"Cube.002"
		}
	],
	"meshes":[
		{
			"name":"Cube.004",
			"primitives":[
				{
					"attributes":{
						"POSITION":0,
						"NORMAL":1,
						"TEXCOORD_0":2
					},
					"indices":3
				}
			]
		}
	],
	"accessors":[
		{
			"bufferView":0,
			"componentType":5126,
			"count":56,
			"max":[
				0.35994064807891846,
				0.35994064807891846,
				0.35994064807891846
			],
			"min":[
				-0.35994064807891846,
				-0.35994064807891846,
				-0.35994064807891846
			],
			"type":"VEC3"
		},
		{
			"bufferView":1,
			"componentType":5126,
			"count":56,
			"type":"VEC3"
		},
		{
			"bufferView":2,
			"componentType":5126,
			"count":56,
			"type":"VEC2"
		},
		{
			"bufferView":3,
			"componentType":5123,
			"count":78,
			"type":"SCALAR"
		}
	],
	"bufferViews":[
		{
			"buffer":0,
			"byteLength":672,
			"byteOffset":0,
			"target":34962
		},
		{
			"buffer":0,
			"byteLength":672,
			"byteOffset":672,
			"target":34962
		},
		{
			"buffer":0,
			"byteLength":448,
			"byteOffset":1344,
			"target":34962
		},
		{
			"buffer":0,
			"byteLength":156,
			"byteOffset":1792,
			"target":34963
		}
	],
	"buffers":[
		{
			"byteLength":1948,
			"uri":"data:application/octet-stream;base64,"
		}
	]
}
