{
	"asset":{
		"generator":"Khronos glTF Blender I/O v3.6.27",
		"version":"2.0"
	},
	"scene":0,
	"scenes":[
		{
			"name":"Scene",
			"nodes":[
				0,
				1
			]
		}
	],
	"nodes":[
		{
			"mesh":0,
			"name":"Plane<trimesh>"
		},
		{
			"mesh":1,
			"name":"Cube<trimesh>"
		}
	],
	"meshes":[
		{
			"name":"Plane<trimesh>",
			"primitives":[
				{
					"attributes":{
						"POSITION":0,
						"NORMAL":1,
						"TEXCOORD_0":2
					},
					"indices":3
				}
			]
		},
		{
			"name":"Cube.001<trimesh>",
			"primitives":[
				{
					"attributes":{
						"POSITION":4,
						"NORMAL":5,
						"TEXCOORD_0":6
					},
					"indices":7
				}
			]
		}
	],
	"accessors":[
		{
			"bufferView":0,
			"componentType":5126,
			"count":28,
			"max":[
				8,
				1,
				8
			],
			"min":[
				-8,
				0,
				-8
			],
			"type":"VEC3"
		},
		{
			"bufferView":1,
			"componentType":5126,
			"count":28,
			"type":"VEC3"
		},
		{
			"bufferView":2,
			"componentType":5126,
			"count":28,
			"type":"VEC2"
		},
		{
			"bufferView":3,
			"componentType":5123,
			"count":60,
			"type":"SCALAR"
		},
		{
			"bufferView":4,
			"componentType":5126,
			"count":256,
			"max":[
				7.450442314147949,
				8.974531173706055,
				7.450442314147949
			],
			"min":[
				-7.450442314147949,
				-0.02546846866607666,
				-7.450442314147949
			],
			"type":"VEC3"
		},
		{
			"bufferView":5,
			"componentType":5126,
			"count":256,
			"type":"VEC3"
		},
		{
			"bufferView":6,
			"componentType":5126,
			"count":256,
			"type":"VEC2"
		},
		{
			"bufferView":7,
			"componentType":5123,
			"count":384,
			"type":"SCALAR"
		}
	],
	"bufferViews":[
		{
			"buffer":0,
			"byteLength":336,
			"byteOffset":0,
			"target":34962
		},
		{
			"buffer":0,
			"byteLength":336,
			"byteOffset":336,
			"target":34962
		},
		{
			"buffer":0,
			"byteLength":224,
			"byteOffset":672,
			"target":34962
		},
		{
			"buffer":0,
			"byteLength":120,
			"byteOffset":896,
			"target":34963
		},
		{
			"buffer":0,
			"byteLength":3072,
			"byteOffset":1016,
			"target":34962
		},
		{
			"buffer":0,
			"byteLength":3072,
			"byteOffset":4088,
			"target":34962
		},
		{
			"buffer":0,
			"byteLength":2048,
			"byteOffset":7160,
			"target":34962
		},
		{
			"buffer":0,
			"byteLength":768,
			"byteOffset":9208,
			"target":34963
		}
	],
	"buffers":[
		{
			"byteLength":9976,
			"uri":"data:application/octet-stream;base64,"
		}
	]
}
