{
	"asset":{
		"generator":"Khronos glTF Blender I/O v3.6.27",
		"version":"2.0"
	},
	"scene":0,
	"scenes":[
		{
			"name":"Scene",
			"nodes":[
				0
			]
		}
	],
	"nodes":[
		{
			"mesh":0,
			"name":"Cylinder"
		}
	],
	"meshes":[
		{
			"name":"Cylinder.001",
			"primitives":[
				{
					"attributes":{
						"POSITION":0,
						"NORMAL":1,
						"TEXCOORD_0":2
					},
					"indices":3
				}
			]
		}
	],
	"accessors":[
		{
			"bufferView":0,
			"componentType":5126,
			"count":1200,
			"max":[
				1.2274781465530396,
				1.4861851930618286,
				1.2274781465530396
			],
			"min":[
				-1.2274781465530396,
				-1.4861851930618286,
				-1.2274781465530396
			],
			"type":"VEC3"
		},
		{
			"bufferView":1,
			"componentType":5126,
			"count":1200,
			"type":"VEC3"
		},
		{
			"bufferView":2,
			"componentType":5126,
			"count":1200,
			"type":"VEC2"
		},
		{
			"bufferView":3,
			"componentType":5123,
			"count":2004,
			"type":"SCALAR"
		}
	],
	"bufferViews":[
		{
			"buffer":0,
			"byteLength":14400,
			"byteOffset":0,
			"target":34962
		},
		{
			"buffer":0,
			"byteLength":14400,
			"byteOffset":14400,
			"target":34962
		},
		{
			"buffer":0,
			"byteLength":9600,
			"byteOffset":28800,
			"target":34962
		},
		{
			"buffer":0,
			"byteLength":4008,
			"byteOffset":38400,
			"target":34963
		}
	],
	"buffers":[
		{
			"byteLength":42408,
			"uri":"data:application/octet-stream;base64,"
		}
	]
}
