{
	"asset":{
		"generator":"Khronos glTF Blender I/O v3.6.27",
		"version":"2.0"
	},
	"scene":0,
	"scenes":[
		{
			"name":"Scene",
			"nodes":[
				0,
				1
			]
		}
	],
	"nodes":[
		{
			"mesh":0,
			"name":"doorway_01"
		},
		{
			"mesh":1,
			"name":"door_01"
		}
	],
	"materials":[
		{
			"doubleSided":true,
			"name":"wood",
			"pbrMetallicRoughness":{
				"baseColorTexture":{
					"index":0
				},
				"metallicFactor":0,
				"roughnessFactor":0.5
			}
		}
	],
	"meshes":[
		{
			"name":"door<trimesh>",
			"primitives":[
				{
					"attributes":{
						"POSITION":0,
						"NORMAL":1,
						"TEXCOORD_0":2
					},
					"indices":3,
					"material":0
				}
			]
		},
		{
			"name":"door<trimesh>.001",
			"primitives":[
				{
					"attributes":{
						"POSITION":4,
						"NORMAL":5,
						"TEXCOORD_0":6
					},
					"indices":7,
					"material":0
				}
			]
		}
	],
	"textures":[
		{
			"sampler":0,
			"source":0
		}
	],
	"images":[
		{
			"bufferView":4,
			"mimeType":"image/png",
			"name":"brick_01"
		}
	],
	"accessors":[
		{
			"bufferView":0,
			"componentType":5126,
			"count":256,
			"max":[
				6.000000476837158,
				13.438023567199707,
				1
			],
			"min":[
				-6.000000476837158,
				-1,
				-1
			],
			"type":"VEC3"
		},
		{
			"bufferView":1,
			"componentType":5126,
			"count":256,
			"type":"VEC3"
		},
		{
			"bufferView":2,
			"componentType":5126,
			"count":256,
			"type":"VEC2"
		},
		{
			"bufferView":3,
			"componentType":5123,
			"count":390,
			"type":"SCALAR"
		},
		{
			"bufferView":5,
			"componentType":5126,
			"count":82,
			"max":[
				4.000000476837158,
				11.4839506149292,
				0.3333333134651184
			],
			"min":[
				-4.000000476837158,
				-1,
				-0.3333333134651184
			],
			"type":"VEC3"
		},
		{
			"bufferView":6,
			"componentType":5126,
			"count":82,
			"type":"VEC3"
		},
		{
			"bufferView":7,
			"componentType":5126,
			"count":82,
			"type":"VEC2"
		},
		{
			"bufferView":8,
			"componentType":5123,
			"count":120,
			"type":"SCALAR"
		}
	],
	"bufferViews":[
		{
			"buffer":0,
			"byteLength":3072,
			"byteOffset":0,
			"target":34962
		},
		{
			"buffer":0,
			"byteLength":3072,
			"byteOffset":3072,
			"target":34962
		},
		{
			"buffer":0,
			"byteLength":2048,
			"byteOffset":6144,
			"target":34962
		},
		{
			"buffer":0,
			"byteLength":780,
			"byteOffset":8192,
			"target":34963
		},
		{
			"buffer":0,
			"byteLength":1457747,
			"byteOffset":8972
		},
		{
			"buffer":0,
			"byteLength":984,
			"byteOffset":1466720,
			"target":34962
		},
		{
			"buffer":0,
			"byteLength":984,
			"byteOffset":1467704,
			"target":34962
		},
		{
			"buffer":0,
			"byteLength":656,
			"byteOffset":1468688,
			"target":34962
		},
		{
			"buffer":0,
			"byteLength":240,
			"byteOffset":1469344,
			"target":34963
		}
	],
	"samplers":[
		{
			"magFilter":9729,
			"minFilter":9987
		}
	],
	"buffers":[
		{
			"byteLength":1469584,
			"uri":"data:application/octet-stream;base64,"
		}
	]
}
