{
	"asset":{
		"generator":"Khronos glTF Blender I/O v4.0.44",
		"version":"2.0"
	},
	"scene":0,
	"scenes":[
		{
			"name":"Scene",
			"nodes":[
				0
			]
		}
	],
	"nodes":[
		{
			"mesh":0,
			"name":"fountain<trimesh>",
			"scale":[
				2,
				2,
				2
			]
		}
	],
	"materials":[
		{
			"doubleSided":true,
			"name":"Material.001",
			"pbrMetallicRoughness":{
				"baseColorTexture":{
					"index":0
				},
				"metallicFactor":0,
				"roughnessFactor":0.5
			}
		}
	],
	"meshes":[
		{
			"name":"fountain<trimesh>",
			"primitives":[
				{
					"attributes":{
						"POSITION":0,
						"NORMAL":1,
						"TEXCOORD_0":2
					},
					"indices":3,
					"material":0
				}
			]
		}
	],
	"textures":[
		{
			"sampler":0,
			"source":0
		}
	],
	"images":[
		{
			"mimeType":"image/png",
			"name":"trim_01",
			"uri":"trim_01.png"
		}
	],
	"accessors":[
		{
			"bufferView":0,
			"componentType":5126,
			"count":1244,
			"max":[
				2.1440646648406982,
				2.5068273544311523,
				2.1440646648406982
			],
			"min":[
				-2.1440646648406982,
				-0.07560807466506958,
				-2.1440646648406982
			],
			"type":"VEC3"
		},
		{
			"bufferView":1,
			"componentType":5126,
			"count":1244,
			"type":"VEC3"
		},
		{
			"bufferView":2,
			"componentType":5126,
			"count":1244,
			"type":"VEC2"
		},
		{
			"bufferView":3,
			"componentType":5123,
			"count":4980,
			"type":"SCALAR"
		}
	],
	"bufferViews":[
		{
			"buffer":0,
			"byteLength":14928,
			"byteOffset":0,
			"target":34962
		},
		{
			"buffer":0,
			"byteLength":14928,
			"byteOffset":14928,
			"target":34962
		},
		{
			"buffer":0,
			"byteLength":9952,
			"byteOffset":29856,
			"target":34962
		},
		{
			"buffer":0,
			"byteLength":9960,
			"byteOffset":39808,
			"target":34963
		}
	],
	"samplers":[
		{
			"magFilter":9729,
			"minFilter":9987
		}
	],
	"buffers":[
		{
			"byteLength":49768,
			"uri":"fountain_01.bin"
		}
	]
}
