{
	"asset":{
		"generator":"Khronos glTF Blender I/O v4.0.44",
		"version":"2.0"
	},
	"scene":0,
	"scenes":[
		{
			"name":"Scene",
			"nodes":[
				0
			]
		}
	],
	"nodes":[
		{
			"mesh":0,
			"name":"water",
			"scale":[
				2,
				2,
				2
			]
		}
	],
	"meshes":[
		{
			"name":"water",
			"primitives":[
				{
					"attributes":{
						"POSITION":0,
						"NORMAL":1,
						"TEXCOORD_0":2
					},
					"indices":3
				}
			]
		}
	],
	"accessors":[
		{
			"bufferView":0,
			"componentType":5126,
			"count":4608,
			"max":[
				1.9631338119506836,
				1.8837273120880127,
				1.9631338119506836
			],
			"min":[
				-1.9631338119506836,
				0.8053848743438721,
				-1.9631338119506836
			],
			"type":"VEC3"
		},
		{
			"bufferView":1,
			"componentType":5126,
			"count":4608,
			"type":"VEC3"
		},
		{
			"bufferView":2,
			"componentType":5126,
			"count":4608,
			"type":"VEC2"
		},
		{
			"bufferView":3,
			"componentType":5123,
			"count":24576,
			"type":"SCALAR"
		}
	],
	"bufferViews":[
		{
			"buffer":0,
			"byteLength":55296,
			"byteOffset":0,
			"target":34962
		},
		{
			"buffer":0,
			"byteLength":55296,
			"byteOffset":55296,
			"target":34962
		},
		{
			"buffer":0,
			"byteLength":36864,
			"byteOffset":110592,
			"target":34962
		},
		{
			"buffer":0,
			"byteLength":49152,
			"byteOffset":147456,
			"target":34963
		}
	],
	"buffers":[
		{
			"byteLength":196608,
			"uri":"fountain_water_01.bin"
		}
	]
}
