{
	"asset":{
		"generator":"Khronos glTF Blender I/O v3.6.27",
		"version":"2.0"
	},
	"scene":0,
	"scenes":[
		{
			"name":"Scene",
			"nodes":[
				0,
				1
			]
		}
	],
	"nodes":[
		{
			"mesh":0,
			"name":"Plane",
			"translation":[
				0.002999912714585662,
				0,
				0
			]
		},
		{
			"mesh":1,
			"name":"Cylinder",
			"translation":[
				-1.5418810844421387,
				0,
				1.5419182777404785
			]
		}
	],
	"meshes":[
		{
			"name":"Plane.001",
			"primitives":[
				{
					"attributes":{
						"POSITION":0,
						"NORMAL":1,
						"TEXCOORD_0":2
					},
					"indices":3
				}
			]
		},
		{
			"name":"Cylinder",
			"primitives":[
				{
					"attributes":{
						"POSITION":4,
						"NORMAL":5,
						"TEXCOORD_0":6
					},
					"indices":7
				}
			]
		}
	],
	"accessors":[
		{
			"bufferView":0,
			"componentType":5126,
			"count":24,
			"max":[
				2,
				0,
				2
			],
			"min":[
				-2,
				-0.21902476251125336,
				-2
			],
			"type":"VEC3"
		},
		{
			"bufferView":1,
			"componentType":5126,
			"count":24,
			"type":"VEC3"
		},
		{
			"bufferView":2,
			"componentType":5126,
			"count":24,
			"type":"VEC2"
		},
		{
			"bufferView":3,
			"componentType":5123,
			"count":36,
			"type":"SCALAR"
		},
		{
			"bufferView":4,
			"componentType":5126,
			"count":7056,
			"max":[
				3.29129695892334,
				0.4945409893989563,
				0.20702283084392548
			],
			"min":[
				-0.20702283084392548,
				-0.04247457906603813,
				-3.29129695892334
			],
			"type":"VEC3"
		},
		{
			"bufferView":5,
			"componentType":5126,
			"count":7056,
			"type":"VEC3"
		},
		{
			"bufferView":6,
			"componentType":5126,
			"count":7056,
			"type":"VEC2"
		},
		{
			"bufferView":7,
			"componentType":5123,
			"count":13524,
			"type":"SCALAR"
		}
	],
	"bufferViews":[
		{
			"buffer":0,
			"byteLength":288,
			"byteOffset":0,
			"target":34962
		},
		{
			"buffer":0,
			"byteLength":288,
			"byteOffset":288,
			"target":34962
		},
		{
			"buffer":0,
			"byteLength":192,
			"byteOffset":576,
			"target":34962
		},
		{
			"buffer":0,
			"byteLength":72,
			"byteOffset":768,
			"target":34963
		},
		{
			"buffer":0,
			"byteLength":84672,
			"byteOffset":840,
			"target":34962
		},
		{
			"buffer":0,
			"byteLength":84672,
			"byteOffset":85512,
			"target":34962
		},
		{
			"buffer":0,
			"byteLength":56448,
			"byteOffset":170184,
			"target":34962
		},
		{
			"buffer":0,
			"byteLength":27048,
			"byteOffset":226632,
			"target":34963
		}
	],
	"buffers":[
		{
			"byteLength":253680,
			"uri":"data:application/octet-stream;base64,"
		}
	]
}
