{
	"asset":{
		"generator":"Khronos glTF Blender I/O v3.6.27",
		"version":"2.0"
	},
	"scene":0,
	"scenes":[
		{
			"name":"Scene",
			"nodes":[
				0
			]
		}
	],
	"nodes":[
		{
			"mesh":0,
			"name":"Cube"
		}
	],
	"meshes":[
		{
			"name":"Cube.001",
			"primitives":[
				{
					"attributes":{
						"POSITION":0,
						"NORMAL":1,
						"TEXCOORD_0":2
					},
					"indices":3
				}
			]
		}
	],
	"accessors":[
		{
			"bufferView":0,
			"componentType":5126,
			"count":182,
			"max":[
				0.2630470395088196,
				1.491484522819519,
				0.08546936511993408
			],
			"min":[
				-0.2630470395088196,
				-1.046852707862854,
				-0.6661173105239868
			],
			"type":"VEC3"
		},
		{
			"bufferView":1,
			"componentType":5126,
			"count":182,
			"type":"VEC3"
		},
		{
			"bufferView":2,
			"componentType":5126,
			"count":182,
			"type":"VEC2"
		},
		{
			"bufferView":3,
			"componentType":5123,
			"count":360,
			"type":"SCALAR"
		}
	],
	"bufferViews":[
		{
			"buffer":0,
			"byteLength":2184,
			"byteOffset":0,
			"target":34962
		},
		{
			"buffer":0,
			"byteLength":2184,
			"byteOffset":2184,
			"target":34962
		},
		{
			"buffer":0,
			"byteLength":1456,
			"byteOffset":4368,
			"target":34962
		},
		{
			"buffer":0,
			"byteLength":720,
			"byteOffset":5824,
			"target":34963
		}
	],
	"buffers":[
		{
			"byteLength":6544,
			"uri":"data:application/octet-stream;base64,"
		}
	]
}
