{
    "asset" : {
        "generator" : "Khronos glTF Blender I/O v1.2.75",
        "version" : "2.0"
    },
    "scene" : 0,
    "scenes" : [
        {
            "name" : "Scene",
            "nodes" : [
                0,
                1
            ]
        }
    ],
    "nodes" : [
        {
            "mesh" : 0,
            "name" : "Cube.003"
        },
        {
            "mesh" : 1,
            "name" : "Cube.004"
        }
    ],
    "materials" : [
        {
            "doubleSided" : true,
            "emissiveFactor" : [
                0,
                0,
                0
            ],
            "name" : "Leaf",
            "pbrMetallicRoughness" : {
                "baseColorTexture" : {
                    "index" : 0,
                    "texCoord" : 0
                },
                "metallicFactor" : 0,
                "roughnessFactor" : 0.5559531450271606
            }
        }
    ],
    "meshes" : [
        {
            "name" : "Cube.003",
            "primitives" : [
                {
                    "attributes" : {
                        "POSITION" : 0,
                        "NORMAL" : 1,
                        "TEXCOORD_0" : 2
                    },
                    "indices" : 3,
                    "material" : 0
                }
            ]
        },
        {
            "name" : "Cube.004",
            "primitives" : [
                {
                    "attributes" : {
                        "POSITION" : 4,
                        "NORMAL" : 5,
                        "TEXCOORD_0" : 6
                    },
                    "indices" : 7,
                    "material" : 0
                }
            ]
        }
    ],
    "textures" : [
        {
            "source" : 0
        }
    ],
    "images" : [
        {
            "bufferView" : 4,
            "mimeType" : "image/png",
            "name" : "tree_palette"
        }
    ],
    "accessors" : [
        {
            "bufferView" : 0,
            "componentType" : 5126,
            "count" : 19152,
            "max" : [
                2.9626340866088867,
                11.53553295135498,
                2.6491432189941406
            ],
            "min" : [
                -3.1943399906158447,
                -0.06669943034648895,
                -3.076939105987549
            ],
            "type" : "VEC3"
        },
        {
            "bufferView" : 1,
            "componentType" : 5126,
            "count" : 19152,
            "type" : "VEC3"
        },
        {
            "bufferView" : 2,
            "componentType" : 5126,
            "count" : 19152,
            "type" : "VEC2"
        },
        {
            "bufferView" : 3,
            "componentType" : 5123,
            "count" : 20520,
            "type" : "SCALAR"
        },
        {
            "bufferView" : 5,
            "componentType" : 5126,
            "count" : 2386,
            "max" : [
                0.609669029712677,
                11.521821022033691,
                0.8329929113388062
            ],
            "min" : [
                -1.018962025642395,
                -0.7121118903160095,
                -0.889673113822937
            ],
            "type" : "VEC3"
        },
        {
            "bufferView" : 6,
            "componentType" : 5126,
            "count" : 2386,
            "type" : "VEC3"
        },
        {
            "bufferView" : 7,
            "componentType" : 5126,
            "count" : 2386,
            "type" : "VEC2"
        },
        {
            "bufferView" : 8,
            "componentType" : 5123,
            "count" : 4896,
            "type" : "SCALAR"
        }
    ],
    "bufferViews" : [
        {
            "buffer" : 0,
            "byteLength" : 229824,
            "byteOffset" : 0
        },
        {
            "buffer" : 0,
            "byteLength" : 229824,
            "byteOffset" : 229824
        },
        {
            "buffer" : 0,
            "byteLength" : 153216,
            "byteOffset" : 459648
        },
        {
            "buffer" : 0,
            "byteLength" : 41040,
            "byteOffset" : 612864
        },
        {
            "buffer" : 0,
            "byteLength" : 323,
            "byteOffset" : 653904
        },
        {
            "buffer" : 0,
            "byteLength" : 28632,
            "byteOffset" : 654228
        },
        {
            "buffer" : 0,
            "byteLength" : 28632,
            "byteOffset" : 682860
        },
        {
            "buffer" : 0,
            "byteLength" : 19088,
            "byteOffset" : 711492
        },
        {
            "buffer" : 0,
            "byteLength" : 9792,
            "byteOffset" : 730580
        }
    ],
    "buffers" : [
        {
            "byteLength" : 740372,
            "uri" : "data:application/octet-stream;base64,"
        }
    ]
}
