{
	"asset":{
		"generator":"Khronos glTF Blender I/O v3.6.27",
		"version":"2.0"
	},
	"extensionsUsed":[
		"KHR_materials_specular",
		"KHR_materials_ior"
	],
	"scene":0,
	"scenes":[
		{
			"name":"Scene",
			"nodes":[
				0
			]
		}
	],
	"nodes":[
		{
			"mesh":0,
			"name":"Utah_Teapot_Quads"
		}
	],
	"materials":[
		{
			"doubleSided":true,
			"extensions":{
				"KHR_materials_specular":{
					"specularColorFactor":[
						0,
						0,
						0
					]
				},
				"KHR_materials_ior":{
					"ior":1.4500000476837158
				}
			},
			"name":"Clear_Coat_Plastic",
			"pbrMetallicRoughness":{
				"baseColorFactor":[
					0.800000011920929,
					0.800000011920929,
					0.800000011920929,
					1
				],
				"metallicFactor":0
			}
		}
	],
	"meshes":[
		{
			"name":"Utah_Teapot_Quads",
			"primitives":[
				{
					"attributes":{
						"POSITION":0,
						"NORMAL":1,
						"TEXCOORD_0":2
					},
					"indices":3,
					"material":0
				}
			]
		}
	],
	"accessors":[
		{
			"bufferView":0,
			"componentType":5126,
			"count":2288,
			"max":[
				0.2392868995666504,
				0.13970601558685303,
				0.13725793361663818
			],
			"min":[
				-0.20996594429016113,
				-0.08480530977249146,
				-0.13748407363891602
			],
			"type":"VEC3"
		},
		{
			"bufferView":1,
			"componentType":5126,
			"count":2288,
			"type":"VEC3"
		},
		{
			"bufferView":2,
			"componentType":5126,
			"count":2288,
			"type":"VEC2"
		},
		{
			"bufferView":3,
			"componentType":5123,
			"count":12096,
			"type":"SCALAR"
		}
	],
	"bufferViews":[
		{
			"buffer":0,
			"byteLength":27456,
			"byteOffset":0,
			"target":34962
		},
		{
			"buffer":0,
			"byteLength":27456,
			"byteOffset":27456,
			"target":34962
		},
		{
			"buffer":0,
			"byteLength":18304,
			"byteOffset":54912,
			"target":34962
		},
		{
			"buffer":0,
			"byteLength":24192,
			"byteOffset":73216,
			"target":34963
		}
	],
	"buffers":[
		{
			"byteLength":97408,
			"uri":"data:application/octet-stream;base64,"
		}
	]
}
