{
    "asset" : {
        "generator" : "Khronos glTF Blender I/O v1.2.75",
        "version" : "2.0"
    },
    "scene" : 0,
    "scenes" : [
        {
            "name" : "Scene",
            "nodes" : [
                0,
                1,
                2
            ]
        }
    ],
    "nodes" : [
        {
            "mesh" : 0,
            "name" : "Cube.004",
            "scale" : [
                22.415559768676758,
                22.415559768676758,
                22.415559768676758
            ],
            "translation" : [
                123.47257232666016,
                72.7869873046875,
                0
            ]
        },
        {
            "mesh" : 1,
            "name" : "Cylinder",
            "scale" : [
                22.415559768676758,
                22.415559768676758,
                22.415559768676758
            ],
            "translation" : [
                123.47528839111328,
                72.73550415039062,
                -0.00651179114356637
            ]
        },
        {
            "mesh" : 2,
            "name" : "Arena<trimesh>"
        }
    ],
    "materials" : [
        {
            "doubleSided" : true,
            "emissiveFactor" : [
                0,
                0,
                0
            ],
            "name" : "Material.001",
            "pbrMetallicRoughness" : {
                "baseColorTexture" : {
                    "index" : 0,
                    "texCoord" : 0
                },
                "metallicFactor" : 0,
                "roughnessFactor" : 0.5
            }
        }
    ],
    "meshes" : [
        {
            "name" : "Cube.006",
            "primitives" : [
                {
                    "attributes" : {
                        "POSITION" : 0,
                        "NORMAL" : 1,
                        "TEXCOORD_0" : 2
                    },
                    "indices" : 3,
                    "material" : 0
                }
            ]
        },
        {
            "name" : "Cylinder",
            "primitives" : [
                {
                    "attributes" : {
                        "POSITION" : 4,
                        "NORMAL" : 5,
                        "TEXCOORD_0" : 6
                    },
                    "indices" : 7,
                    "material" : 0
                }
            ]
        },
        {
            "name" : "Arena<trimesh>",
            "primitives" : [
                {
                    "attributes" : {
                        "POSITION" : 8,
                        "NORMAL" : 9,
                        "TEXCOORD_0" : 10
                    },
                    "indices" : 11
                }
            ]
        }
    ],
    "textures" : [
        {
            "source" : 0
        }
    ],
    "images" : [
        {
            "bufferView" : 4,
            "mimeType" : "image/png",
            "name" : "dirt_01"
        }
    ],
    "accessors" : [
        {
            "bufferView" : 0,
            "componentType" : 5126,
            "count" : 176,
            "max" : [
                1.0384410619735718,
                1.038901925086975,
                1.4477180242538452
            ],
            "min" : [
                -1.1322965621948242,
                -1.2580199241638184,
                -1.4477180242538452
            ],
            "type" : "VEC3"
        },
        {
            "bufferView" : 1,
            "componentType" : 5126,
            "count" : 176,
            "type" : "VEC3"
        },
        {
            "bufferView" : 2,
            "componentType" : 5126,
            "count" : 176,
            "type" : "VEC2"
        },
        {
            "bufferView" : 3,
            "componentType" : 5123,
            "count" : 930,
            "type" : "SCALAR"
        },
        {
            "bufferView" : 5,
            "componentType" : 5126,
            "count" : 448,
            "max" : [
                0.6905293464660645,
                1.520121455192566,
                1.220213770866394
            ],
            "min" : [
                -0.24394136667251587,
                0.614038348197937,
                -1.220213770866394
            ],
            "type" : "VEC3"
        },
        {
            "bufferView" : 6,
            "componentType" : 5126,
            "count" : 448,
            "type" : "VEC3"
        },
        {
            "bufferView" : 7,
            "componentType" : 5126,
            "count" : 448,
            "type" : "VEC2"
        },
        {
            "bufferView" : 8,
            "componentType" : 5123,
            "count" : 2664,
            "type" : "SCALAR"
        },
        {
            "bufferView" : 9,
            "componentType" : 5126,
            "count" : 7064,
            "max" : [
                150.93084716796875,
                88.45033264160156,
                129.2363739013672
            ],
            "min" : [
                -150.93084716796875,
                -21.000513076782227,
                -129.2363739013672
            ],
            "type" : "VEC3"
        },
        {
            "bufferView" : 10,
            "componentType" : 5126,
            "count" : 7064,
            "type" : "VEC3"
        },
        {
            "bufferView" : 11,
            "componentType" : 5126,
            "count" : 7064,
            "type" : "VEC2"
        },
        {
            "bufferView" : 12,
            "componentType" : 5123,
            "count" : 10560,
            "type" : "SCALAR"
        }
    ],
    "bufferViews" : [
        {
            "buffer" : 0,
            "byteLength" : 2112,
            "byteOffset" : 0
        },
        {
            "buffer" : 0,
            "byteLength" : 2112,
            "byteOffset" : 2112
        },
        {
            "buffer" : 0,
            "byteLength" : 1408,
            "byteOffset" : 4224
        },
        {
            "buffer" : 0,
            "byteLength" : 1860,
            "byteOffset" : 5632
        },
        {
            "buffer" : 0,
            "byteLength" : 1126742,
            "byteOffset" : 7492
        },
        {
            "buffer" : 0,
            "byteLength" : 5376,
            "byteOffset" : 1134236
        },
        {
            "buffer" : 0,
            "byteLength" : 5376,
            "byteOffset" : 1139612
        },
        {
            "buffer" : 0,
            "byteLength" : 3584,
            "byteOffset" : 1144988
        },
        {
            "buffer" : 0,
            "byteLength" : 5328,
            "byteOffset" : 1148572
        },
        {
            "buffer" : 0,
            "byteLength" : 84768,
            "byteOffset" : 1153900
        },
        {
            "buffer" : 0,
            "byteLength" : 84768,
            "byteOffset" : 1238668
        },
        {
            "buffer" : 0,
            "byteLength" : 56512,
            "byteOffset" : 1323436
        },
        {
            "buffer" : 0,
            "byteLength" : 21120,
            "byteOffset" : 1379948
        }
    ],
    "buffers" : [
        {
            "byteLength" : 1401068,
            "uri" : "data:application/octet-stream;base64,"
        }
    ]
}
