{
	"asset":{
		"generator":"Khronos glTF Blender I/O v4.0.44",
		"version":"2.0"
	},
	"scene":0,
	"scenes":[
		{
			"name":"Scene",
			"nodes":[
				0
			]
		}
	],
	"nodes":[
		{
			"mesh":0,
			"name":"cave_01<trimesh>"
		}
	],
	"meshes":[
		{
			"name":"cave_01<trimesh>",
			"primitives":[
				{
					"attributes":{
						"POSITION":0,
						"NORMAL":1,
						"TEXCOORD_0":2
					},
					"indices":3
				}
			]
		}
	],
	"accessors":[
		{
			"bufferView":0,
			"componentType":5126,
			"count":127164,
			"max":[
				309.88995361328125,
				13.305562019348145,
				127.43548583984375
			],
			"min":[
				-523.14501953125,
				-63.95944595336914,
				-583.2151489257812
			],
			"type":"VEC3"
		},
		{
			"bufferView":1,
			"componentType":5126,
			"count":127164,
			"type":"VEC3"
		},
		{
			"bufferView":2,
			"componentType":5126,
			"count":127164,
			"type":"VEC2"
		},
		{
			"bufferView":3,
			"componentType":5125,
			"count":127176,
			"type":"SCALAR"
		}
	],
	"bufferViews":[
		{
			"buffer":0,
			"byteLength":1525968,
			"byteOffset":0,
			"target":34962
		},
		{
			"buffer":0,
			"byteLength":1525968,
			"byteOffset":1525968,
			"target":34962
		},
		{
			"buffer":0,
			"byteLength":1017312,
			"byteOffset":3051936,
			"target":34962
		},
		{
			"buffer":0,
			"byteLength":508704,
			"byteOffset":4069248,
			"target":34963
		}
	],
	"buffers":[
		{
			"byteLength":4577952,
			"uri":"cave_01.bin"
		}
	]
}
