{
	"asset":{
		"generator":"Khronos glTF Blender I/O v3.6.27",
		"version":"2.0"
	},
	"scene":0,
	"scenes":[
		{
			"name":"Scene",
			"nodes":[
				0
			]
		}
	],
	"nodes":[
		{
			"mesh":0,
			"name":"church_01<trimesh>"
		}
	],
	"materials":[
		{
			"doubleSided":true,
			"name":"Material",
			"pbrMetallicRoughness":{
				"baseColorTexture":{
					"index":0
				},
				"metallicFactor":0,
				"roughnessFactor":0.5
			}
		}
	],
	"meshes":[
		{
			"name":"Church_01<trimesh>",
			"primitives":[
				{
					"attributes":{
						"POSITION":0,
						"NORMAL":1,
						"TEXCOORD_0":2
					},
					"indices":3,
					"material":0
				}
			]
		}
	],
	"textures":[
		{
			"sampler":0,
			"source":0
		}
	],
	"images":[
		{
			"bufferView":4,
			"mimeType":"image/png",
			"name":"trim_01"
		}
	],
	"accessors":[
		{
			"bufferView":0,
			"componentType":5126,
			"count":3100,
			"max":[
				101.87628173828125,
				68,
				37.51109313964844
			],
			"min":[
				-77.79573822021484,
				-0.4548525810241699,
				-88.52421569824219
			],
			"type":"VEC3"
		},
		{
			"bufferView":1,
			"componentType":5126,
			"count":3100,
			"type":"VEC3"
		},
		{
			"bufferView":2,
			"componentType":5126,
			"count":3100,
			"type":"VEC2"
		},
		{
			"bufferView":3,
			"componentType":5123,
			"count":6186,
			"type":"SCALAR"
		}
	],
	"bufferViews":[
		{
			"buffer":0,
			"byteLength":37200,
			"byteOffset":0,
			"target":34962
		},
		{
			"buffer":0,
			"byteLength":37200,
			"byteOffset":37200,
			"target":34962
		},
		{
			"buffer":0,
			"byteLength":24800,
			"byteOffset":74400,
			"target":34962
		},
		{
			"buffer":0,
			"byteLength":12372,
			"byteOffset":99200,
			"target":34963
		},
		{
			"buffer":0,
			"byteLength":695460,
			"byteOffset":111572
		}
	],
	"samplers":[
		{
			"magFilter":9729,
			"minFilter":9987
		}
	],
	"buffers":[
		{
			"byteLength":807032,
			"uri":"data:application/octet-stream;base64,"
		}
	]
}
