{
	"asset":{
		"generator":"Khronos glTF Blender I/O v4.0.44",
		"version":"2.0"
	},
	"scene":0,
	"scenes":[
		{
			"name":"Scene",
			"nodes":[
				0
			]
		}
	],
	"nodes":[
		{
			"mesh":0,
			"name":"city_01_ground<trimesh>"
		}
	],
	"meshes":[
		{
			"name":"city_01_ground<trimesh>",
			"primitives":[
				{
					"attributes":{
						"POSITION":0,
						"NORMAL":1,
						"TEXCOORD_0":2
					},
					"indices":3
				}
			]
		}
	],
	"accessors":[
		{
			"bufferView":0,
			"componentType":5126,
			"count":20,
			"max":[
				426.9071960449219,
				0,
				284.4140625
			],
			"min":[
				-426.9071960449219,
				-21,
				-323.4293518066406
			],
			"type":"VEC3"
		},
		{
			"bufferView":1,
			"componentType":5126,
			"count":20,
			"type":"VEC3"
		},
		{
			"bufferView":2,
			"componentType":5126,
			"count":20,
			"type":"VEC2"
		},
		{
			"bufferView":3,
			"componentType":5123,
			"count":30,
			"type":"SCALAR"
		}
	],
	"bufferViews":[
		{
			"buffer":0,
			"byteLength":240,
			"byteOffset":0,
			"target":34962
		},
		{
			"buffer":0,
			"byteLength":240,
			"byteOffset":240,
			"target":34962
		},
		{
			"buffer":0,
			"byteLength":160,
			"byteOffset":480,
			"target":34962
		},
		{
			"buffer":0,
			"byteLength":60,
			"byteOffset":640,
			"target":34963
		}
	],
	"buffers":[
		{
			"byteLength":700,
			"uri":"city_01_ground.bin"
		}
	]
}
