{
    "asset" : {
        "generator" : "Khronos glTF Blender I/O v1.2.75",
        "version" : "2.0"
    },
    "scene" : 0,
    "scenes" : [
        {
            "name" : "Scene",
            "nodes" : [
                0,
                1
            ]
        }
    ],
    "nodes" : [
        {
            "mesh" : 0,
            "name" : "pillar_01_1x12x1<trimesh>"
        },
        {
            "mesh" : 1,
            "name" : "homebase<trimesh>"
        }
    ],
    "materials" : [
        {
            "doubleSided" : true,
            "emissiveFactor" : [
                0,
                0,
                0
            ],
            "name" : "pillar",
            "pbrMetallicRoughness" : {
                "baseColorFactor" : [
                    0.2600221633911133,
                    0.334323912858963,
                    0.24082815647125244,
                    1
                ],
                "metallicFactor" : 0,
                "roughnessFactor" : 0.5
            }
        }
    ],
    "meshes" : [
        {
            "name" : "Cube.003",
            "primitives" : [
                {
                    "attributes" : {
                        "POSITION" : 0,
                        "NORMAL" : 1,
                        "TEXCOORD_0" : 2
                    },
                    "indices" : 3,
                    "material" : 0
                }
            ]
        },
        {
            "name" : "Cube.004",
            "primitives" : [
                {
                    "attributes" : {
                        "POSITION" : 4,
                        "NORMAL" : 5,
                        "TEXCOORD_0" : 6
                    },
                    "indices" : 7
                }
            ]
        }
    ],
    "accessors" : [
        {
            "bufferView" : 0,
            "componentType" : 5126,
            "count" : 4208,
            "max" : [
                0.1020965576171875,
                24.596128463745117,
                47.6464729309082
            ],
            "min" : [
                -10.897903442382812,
                -0.5961285829544067,
                -2.353519916534424
            ],
            "type" : "VEC3"
        },
        {
            "bufferView" : 1,
            "componentType" : 5126,
            "count" : 4208,
            "type" : "VEC3"
        },
        {
            "bufferView" : 2,
            "componentType" : 5126,
            "count" : 4208,
            "type" : "VEC2"
        },
        {
            "bufferView" : 3,
            "componentType" : 5123,
            "count" : 5520,
            "type" : "SCALAR"
        },
        {
            "bufferView" : 4,
            "componentType" : 5126,
            "count" : 2095,
            "max" : [
                101.58466339111328,
                39.95864486694336,
                100
            ],
            "min" : [
                -26.99982452392578,
                -10.407453536987305,
                -100
            ],
            "type" : "VEC3"
        },
        {
            "bufferView" : 5,
            "componentType" : 5126,
            "count" : 2095,
            "type" : "VEC3"
        },
        {
            "bufferView" : 6,
            "componentType" : 5126,
            "count" : 2095,
            "type" : "VEC2"
        },
        {
            "bufferView" : 7,
            "componentType" : 5123,
            "count" : 3456,
            "type" : "SCALAR"
        }
    ],
    "bufferViews" : [
        {
            "buffer" : 0,
            "byteLength" : 50496,
            "byteOffset" : 0
        },
        {
            "buffer" : 0,
            "byteLength" : 50496,
            "byteOffset" : 50496
        },
        {
            "buffer" : 0,
            "byteLength" : 33664,
            "byteOffset" : 100992
        },
        {
            "buffer" : 0,
            "byteLength" : 11040,
            "byteOffset" : 134656
        },
        {
            "buffer" : 0,
            "byteLength" : 25140,
            "byteOffset" : 145696
        },
        {
            "buffer" : 0,
            "byteLength" : 25140,
            "byteOffset" : 170836
        },
        {
            "buffer" : 0,
            "byteLength" : 16760,
            "byteOffset" : 195976
        },
        {
            "buffer" : 0,
            "byteLength" : 6912,
            "byteOffset" : 212736
        }
    ],
    "buffers" : [
        {
            "byteLength" : 219648,
            "uri" : "data:application/octet-stream;base64,"
        }
    ]
}
