{
	"asset":{
		"generator":"Khronos glTF Blender I/O v3.6.27",
		"version":"2.0"
	},
	"scene":0,
	"scenes":[
		{
			"name":"Scene",
			"nodes":[
				0
			]
		}
	],
	"nodes":[
		{
			"mesh":0,
			"name":"Cube.001"
		}
	],
	"meshes":[
		{
			"name":"Cube.003",
			"primitives":[
				{
					"attributes":{
						"POSITION":0,
						"NORMAL":1,
						"TEXCOORD_0":2
					},
					"indices":3
				}
			]
		}
	],
	"accessors":[
		{
			"bufferView":0,
			"componentType":5126,
			"count":1987,
			"max":[
				20.707107543945312,
				28.291900634765625,
				12
			],
			"min":[
				-12,
				-0.19765841960906982,
				-45.70710754394531
			],
			"type":"VEC3"
		},
		{
			"bufferView":1,
			"componentType":5126,
			"count":1987,
			"type":"VEC3"
		},
		{
			"bufferView":2,
			"componentType":5126,
			"count":1987,
			"type":"VEC2"
		},
		{
			"bufferView":3,
			"componentType":5123,
			"count":5520,
			"type":"SCALAR"
		}
	],
	"bufferViews":[
		{
			"buffer":0,
			"byteLength":23844,
			"byteOffset":0,
			"target":34962
		},
		{
			"buffer":0,
			"byteLength":23844,
			"byteOffset":23844,
			"target":34962
		},
		{
			"buffer":0,
			"byteLength":15896,
			"byteOffset":47688,
			"target":34962
		},
		{
			"buffer":0,
			"byteLength":11040,
			"byteOffset":63584,
			"target":34963
		}
	],
	"buffers":[
		{
			"byteLength":74624,
			"uri":"data:application/octet-stream;base64,"
		}
	]
}
