{
	"asset":{
		"generator":"Khronos glTF Blender I/O v3.6.27",
		"version":"2.0"
	},
	"scene":0,
	"scenes":[
		{
			"name":"Scene",
			"nodes":[
				0
			]
		}
	],
	"nodes":[
		{
			"mesh":0,
			"name":"Cube"
		}
	],
	"materials":[
		{
			"doubleSided":true,
			"name":"Rock1.001",
			"pbrMetallicRoughness":{
				"baseColorFactor":[
					0.15428483486175537,
					0.1454477608203888,
					0.20186525583267212,
					1
				],
				"metallicFactor":0,
				"roughnessFactor":0.5
			}
		}
	],
	"meshes":[
		{
			"name":"Cube.001",
			"primitives":[
				{
					"attributes":{
						"POSITION":0,
						"NORMAL":1
					},
					"indices":2,
					"material":0
				}
			]
		}
	],
	"accessors":[
		{
			"bufferView":0,
			"componentType":5126,
			"count":78817,
			"max":[
				294.9627380371094,
				67.72108459472656,
				169.14682006835938
			],
			"min":[
				-226.5658721923828,
				-24.680438995361328,
				-256.4205627441406
			],
			"type":"VEC3"
		},
		{
			"bufferView":1,
			"componentType":5126,
			"count":78817,
			"type":"VEC3"
		},
		{
			"bufferView":2,
			"componentType":5125,
			"count":85164,
			"type":"SCALAR"
		}
	],
	"bufferViews":[
		{
			"buffer":0,
			"byteLength":945804,
			"byteOffset":0,
			"target":34962
		},
		{
			"buffer":0,
			"byteLength":945804,
			"byteOffset":945804,
			"target":34962
		},
		{
			"buffer":0,
			"byteLength":340656,
			"byteOffset":1891608,
			"target":34963
		}
	],
	"buffers":[
		{
			"byteLength":2232264,
			"uri":"data:application/octet-stream;base64,"
		}
	]
}
