{
	"asset":{
		"generator":"Khronos glTF Blender I/O v3.6.27",
		"version":"2.0"
	},
	"scene":0,
	"scenes":[
		{
			"name":"Scene",
			"nodes":[
				0
			]
		}
	],
	"nodes":[
		{
			"mesh":0,
			"name":"room_03<trimesh>"
		}
	],
	"meshes":[
		{
			"name":"room_02<trimesh>",
			"primitives":[
				{
					"attributes":{
						"POSITION":0,
						"NORMAL":1,
						"TEXCOORD_0":2
					},
					"indices":3
				}
			]
		}
	],
	"accessors":[
		{
			"bufferView":0,
			"componentType":5126,
			"count":791,
			"max":[
				162.61875915527344,
				195.03872680664062,
				742.5538330078125
			],
			"min":[
				-162.61875915527344,
				-37.38087844848633,
				-100
			],
			"type":"VEC3"
		},
		{
			"bufferView":1,
			"componentType":5126,
			"count":791,
			"type":"VEC3"
		},
		{
			"bufferView":2,
			"componentType":5126,
			"count":791,
			"type":"VEC2"
		},
		{
			"bufferView":3,
			"componentType":5123,
			"count":2262,
			"type":"SCALAR"
		}
	],
	"bufferViews":[
		{
			"buffer":0,
			"byteLength":9492,
			"byteOffset":0,
			"target":34962
		},
		{
			"buffer":0,
			"byteLength":9492,
			"byteOffset":9492,
			"target":34962
		},
		{
			"buffer":0,
			"byteLength":6328,
			"byteOffset":18984,
			"target":34962
		},
		{
			"buffer":0,
			"byteLength":4524,
			"byteOffset":25312,
			"target":34963
		}
	],
	"buffers":[
		{
			"byteLength":29836,
			"uri":"data:application/octet-stream;base64,"
		}
	]
}
