{
	"asset":{
		"generator":"Khronos glTF Blender I/O v3.6.27",
		"version":"2.0"
	},
	"scene":0,
	"scenes":[
		{
			"name":"Scene",
			"nodes":[
				0,
				1
			]
		}
	],
	"nodes":[
		{
			"mesh":0,
			"name":"room_02<trimesh>"
		},
		{
			"mesh":1,
			"name":"room_02<trimesh>.001"
		}
	],
	"meshes":[
		{
			"name":"Plane<trimesh>",
			"primitives":[
				{
					"attributes":{
						"POSITION":0,
						"NORMAL":1,
						"TEXCOORD_0":2
					},
					"indices":3
				}
			]
		},
		{
			"name":"Plane.001<trimesh>",
			"primitives":[
				{
					"attributes":{
						"POSITION":4,
						"NORMAL":5,
						"TEXCOORD_0":6
					},
					"indices":7
				}
			]
		}
	],
	"accessors":[
		{
			"bufferView":0,
			"componentType":5126,
			"count":188,
			"max":[
				40,
				22.274139404296875,
				40
			],
			"min":[
				-40,
				0,
				-40
			],
			"type":"VEC3"
		},
		{
			"bufferView":1,
			"componentType":5126,
			"count":188,
			"type":"VEC3"
		},
		{
			"bufferView":2,
			"componentType":5126,
			"count":188,
			"type":"VEC2"
		},
		{
			"bufferView":3,
			"componentType":5123,
			"count":396,
			"type":"SCALAR"
		},
		{
			"bufferView":4,
			"componentType":5126,
			"count":193,
			"max":[
				13.557766914367676,
				16.400680541992188,
				13.557766914367676
			],
			"min":[
				-13.557766914367676,
				0,
				-13.557766914367676
			],
			"type":"VEC3"
		},
		{
			"bufferView":5,
			"componentType":5126,
			"count":193,
			"type":"VEC3"
		},
		{
			"bufferView":6,
			"componentType":5126,
			"count":193,
			"type":"VEC2"
		},
		{
			"bufferView":7,
			"componentType":5123,
			"count":402,
			"type":"SCALAR"
		}
	],
	"bufferViews":[
		{
			"buffer":0,
			"byteLength":2256,
			"byteOffset":0,
			"target":34962
		},
		{
			"buffer":0,
			"byteLength":2256,
			"byteOffset":2256,
			"target":34962
		},
		{
			"buffer":0,
			"byteLength":1504,
			"byteOffset":4512,
			"target":34962
		},
		{
			"buffer":0,
			"byteLength":792,
			"byteOffset":6016,
			"target":34963
		},
		{
			"buffer":0,
			"byteLength":2316,
			"byteOffset":6808,
			"target":34962
		},
		{
			"buffer":0,
			"byteLength":2316,
			"byteOffset":9124,
			"target":34962
		},
		{
			"buffer":0,
			"byteLength":1544,
			"byteOffset":11440,
			"target":34962
		},
		{
			"buffer":0,
			"byteLength":804,
			"byteOffset":12984,
			"target":34963
		}
	],
	"buffers":[
		{
			"byteLength":13788,
			"uri":"data:application/octet-stream;base64,"
		}
	]
}
