{
	"asset":{
		"generator":"Khronos glTF Blender I/O v4.0.44",
		"version":"2.0"
	},
	"scene":0,
	"scenes":[
		{
			"name":"Scene",
			"nodes":[
				0,
				1,
				2,
				3,
				4
			]
		}
	],
	"nodes":[
		{
			"mesh":0,
			"name":"room_02<trimesh>",
			"translation":[
				88,
				0,
				0
			]
		},
		{
			"mesh":1,
			"name":"Plane",
			"translation":[
				88,
				0,
				0
			]
		},
		{
			"mesh":2,
			"name":"room_bridge_01<trimesh>"
		},
		{
			"mesh":3,
			"name":"room_bridge_01<trimesh>.001",
			"translation":[
				-37.13069152832031,
				1.5,
				-24.65733528137207
			]
		},
		{
			"mesh":4,
			"name":"Cube.001",
			"translation":[
				-24,
				9.1553955078125,
				-26.105894088745117
			]
		}
	],
	"meshes":[
		{
			"name":"Plane<trimesh>",
			"primitives":[
				{
					"attributes":{
						"POSITION":0,
						"NORMAL":1,
						"TEXCOORD_0":2
					},
					"indices":3
				}
			]
		},
		{
			"name":"Plane",
			"primitives":[
				{
					"attributes":{
						"POSITION":4,
						"NORMAL":5,
						"TEXCOORD_0":6
					},
					"indices":7
				}
			]
		},
		{
			"name":"room_bridge_01<trimesh>",
			"primitives":[
				{
					"attributes":{
						"POSITION":8,
						"NORMAL":9,
						"TEXCOORD_0":10
					},
					"indices":11
				}
			]
		},
		{
			"name":"room_bridge_01<trimesh>.001",
			"primitives":[
				{
					"attributes":{
						"POSITION":12,
						"NORMAL":13,
						"TEXCOORD_0":14
					},
					"indices":15
				}
			]
		},
		{
			"name":"Cube.004",
			"primitives":[
				{
					"attributes":{
						"POSITION":16,
						"NORMAL":17,
						"TEXCOORD_0":18
					},
					"indices":19
				}
			]
		}
	],
	"accessors":[
		{
			"bufferView":0,
			"componentType":5126,
			"count":188,
			"max":[
				40,
				22.274139404296875,
				40
			],
			"min":[
				-40,
				0,
				-40
			],
			"type":"VEC3"
		},
		{
			"bufferView":1,
			"componentType":5126,
			"count":188,
			"type":"VEC3"
		},
		{
			"bufferView":2,
			"componentType":5126,
			"count":188,
			"type":"VEC2"
		},
		{
			"bufferView":3,
			"componentType":5123,
			"count":396,
			"type":"SCALAR"
		},
		{
			"bufferView":4,
			"componentType":5126,
			"count":170,
			"max":[
				25,
				22.274139404296875,
				10.671112060546875
			],
			"min":[
				-28.4063663482666,
				0,
				-13.87468147277832
			],
			"type":"VEC3"
		},
		{
			"bufferView":5,
			"componentType":5126,
			"count":170,
			"type":"VEC3"
		},
		{
			"bufferView":6,
			"componentType":5126,
			"count":170,
			"type":"VEC2"
		},
		{
			"bufferView":7,
			"componentType":5123,
			"count":420,
			"type":"SCALAR"
		},
		{
			"bufferView":8,
			"componentType":5126,
			"count":365,
			"max":[
				25,
				21.343570709228516,
				37.5
			],
			"min":[
				-49.26138687133789,
				-10.577792167663574,
				-37.5
			],
			"type":"VEC3"
		},
		{
			"bufferView":9,
			"componentType":5126,
			"count":365,
			"type":"VEC3"
		},
		{
			"bufferView":10,
			"componentType":5126,
			"count":365,
			"type":"VEC2"
		},
		{
			"bufferView":11,
			"componentType":5123,
			"count":804,
			"type":"SCALAR"
		},
		{
			"bufferView":12,
			"componentType":5126,
			"count":64,
			"max":[
				10.877988815307617,
				1.5,
				12.842658042907715
			],
			"min":[
				-12.130695343017578,
				-1.5,
				-12.84266471862793
			],
			"type":"VEC3"
		},
		{
			"bufferView":13,
			"componentType":5126,
			"count":64,
			"type":"VEC3"
		},
		{
			"bufferView":14,
			"componentType":5126,
			"count":64,
			"type":"VEC2"
		},
		{
			"bufferView":15,
			"componentType":5123,
			"count":96,
			"type":"SCALAR"
		},
		{
			"bufferView":16,
			"componentType":5126,
			"count":24,
			"max":[
				1,
				-0.2772291898727417,
				3.897106170654297
			],
			"min":[
				-1,
				-1,
				-1
			],
			"type":"VEC3"
		},
		{
			"bufferView":17,
			"componentType":5126,
			"count":24,
			"type":"VEC3"
		},
		{
			"bufferView":18,
			"componentType":5126,
			"count":24,
			"type":"VEC2"
		},
		{
			"bufferView":19,
			"componentType":5123,
			"count":36,
			"type":"SCALAR"
		}
	],
	"bufferViews":[
		{
			"buffer":0,
			"byteLength":2256,
			"byteOffset":0,
			"target":34962
		},
		{
			"buffer":0,
			"byteLength":2256,
			"byteOffset":2256,
			"target":34962
		},
		{
			"buffer":0,
			"byteLength":1504,
			"byteOffset":4512,
			"target":34962
		},
		{
			"buffer":0,
			"byteLength":792,
			"byteOffset":6016,
			"target":34963
		},
		{
			"buffer":0,
			"byteLength":2040,
			"byteOffset":6808,
			"target":34962
		},
		{
			"buffer":0,
			"byteLength":2040,
			"byteOffset":8848,
			"target":34962
		},
		{
			"buffer":0,
			"byteLength":1360,
			"byteOffset":10888,
			"target":34962
		},
		{
			"buffer":0,
			"byteLength":840,
			"byteOffset":12248,
			"target":34963
		},
		{
			"buffer":0,
			"byteLength":4380,
			"byteOffset":13088,
			"target":34962
		},
		{
			"buffer":0,
			"byteLength":4380,
			"byteOffset":17468,
			"target":34962
		},
		{
			"buffer":0,
			"byteLength":2920,
			"byteOffset":21848,
			"target":34962
		},
		{
			"buffer":0,
			"byteLength":1608,
			"byteOffset":24768,
			"target":34963
		},
		{
			"buffer":0,
			"byteLength":768,
			"byteOffset":26376,
			"target":34962
		},
		{
			"buffer":0,
			"byteLength":768,
			"byteOffset":27144,
			"target":34962
		},
		{
			"buffer":0,
			"byteLength":512,
			"byteOffset":27912,
			"target":34962
		},
		{
			"buffer":0,
			"byteLength":192,
			"byteOffset":28424,
			"target":34963
		},
		{
			"buffer":0,
			"byteLength":288,
			"byteOffset":28616,
			"target":34962
		},
		{
			"buffer":0,
			"byteLength":288,
			"byteOffset":28904,
			"target":34962
		},
		{
			"buffer":0,
			"byteLength":192,
			"byteOffset":29192,
			"target":34962
		},
		{
			"buffer":0,
			"byteLength":72,
			"byteOffset":29384,
			"target":34963
		}
	],
	"buffers":[
		{
			"byteLength":29456,
			"uri":"room_bridge_01_shop_.bin"
		}
	]
}
