{
	"asset":{
		"generator":"Khronos glTF Blender I/O v3.6.27",
		"version":"2.0"
	},
	"scene":0,
	"scenes":[
		{
			"name":"Scene",
			"nodes":[
				0,
				1
			]
		}
	],
	"nodes":[
		{
			"mesh":0,
			"name":"room_02<trimesh>.002"
		},
		{
			"mesh":1,
			"name":"room_02<trimesh>.003"
		}
	],
	"meshes":[
		{
			"name":"Plane<trimesh>.001",
			"primitives":[
				{
					"attributes":{
						"POSITION":0,
						"NORMAL":1,
						"TEXCOORD_0":2
					},
					"indices":3
				}
			]
		},
		{
			"name":"Plane<trimesh>.002",
			"primitives":[
				{
					"attributes":{
						"POSITION":4,
						"NORMAL":5,
						"TEXCOORD_0":6
					},
					"indices":7
				}
			]
		}
	],
	"accessors":[
		{
			"bufferView":0,
			"componentType":5126,
			"count":183,
			"max":[
				40,
				22.274139404296875,
				40
			],
			"min":[
				-40,
				0,
				-40
			],
			"type":"VEC3"
		},
		{
			"bufferView":1,
			"componentType":5126,
			"count":183,
			"type":"VEC3"
		},
		{
			"bufferView":2,
			"componentType":5126,
			"count":183,
			"type":"VEC2"
		},
		{
			"bufferView":3,
			"componentType":5123,
			"count":372,
			"type":"SCALAR"
		},
		{
			"bufferView":4,
			"componentType":5126,
			"count":480,
			"max":[
				18.947269439697266,
				20.644561767578125,
				26.50079917907715
			],
			"min":[
				-18.947269439697266,
				-6.137247964943526e-06,
				-26.158084869384766
			],
			"type":"VEC3"
		},
		{
			"bufferView":5,
			"componentType":5126,
			"count":480,
			"type":"VEC3"
		},
		{
			"bufferView":6,
			"componentType":5126,
			"count":480,
			"type":"VEC2"
		},
		{
			"bufferView":7,
			"componentType":5123,
			"count":1206,
			"type":"SCALAR"
		}
	],
	"bufferViews":[
		{
			"buffer":0,
			"byteLength":2196,
			"byteOffset":0,
			"target":34962
		},
		{
			"buffer":0,
			"byteLength":2196,
			"byteOffset":2196,
			"target":34962
		},
		{
			"buffer":0,
			"byteLength":1464,
			"byteOffset":4392,
			"target":34962
		},
		{
			"buffer":0,
			"byteLength":744,
			"byteOffset":5856,
			"target":34963
		},
		{
			"buffer":0,
			"byteLength":5760,
			"byteOffset":6600,
			"target":34962
		},
		{
			"buffer":0,
			"byteLength":5760,
			"byteOffset":12360,
			"target":34962
		},
		{
			"buffer":0,
			"byteLength":3840,
			"byteOffset":18120,
			"target":34962
		},
		{
			"buffer":0,
			"byteLength":2412,
			"byteOffset":21960,
			"target":34963
		}
	],
	"buffers":[
		{
			"byteLength":24372,
			"uri":"data:application/octet-stream;base64,"
		}
	]
}
