{
	"asset":{
		"generator":"Khronos glTF Blender I/O v3.6.27",
		"version":"2.0"
	},
	"scene":0,
	"scenes":[
		{
			"name":"Scene",
			"nodes":[
				0,
				1
			]
		}
	],
	"nodes":[
		{
			"mesh":0,
			"name":"room_02<trimesh>"
		},
		{
			"mesh":1,
			"name":"Cube.001"
		}
	],
	"meshes":[
		{
			"name":"Plane<trimesh>",
			"primitives":[
				{
					"attributes":{
						"POSITION":0,
						"NORMAL":1,
						"TEXCOORD_0":2
					},
					"indices":3
				}
			]
		},
		{
			"name":"Cube.003",
			"primitives":[
				{
					"attributes":{
						"POSITION":4,
						"NORMAL":5,
						"TEXCOORD_0":6
					},
					"indices":7
				}
			]
		}
	],
	"accessors":[
		{
			"bufferView":0,
			"componentType":5126,
			"count":267,
			"max":[
				40,
				41.451560974121094,
				40
			],
			"min":[
				-40,
				0,
				-40
			],
			"type":"VEC3"
		},
		{
			"bufferView":1,
			"componentType":5126,
			"count":267,
			"type":"VEC3"
		},
		{
			"bufferView":2,
			"componentType":5126,
			"count":267,
			"type":"VEC2"
		},
		{
			"bufferView":3,
			"componentType":5123,
			"count":564,
			"type":"SCALAR"
		},
		{
			"bufferView":4,
			"componentType":5126,
			"count":1180,
			"max":[
				9.07551097869873,
				22.37205696105957,
				9.074463844299316
			],
			"min":[
				-8.958488464355469,
				-0.315729022026062,
				-9.076446533203125
			],
			"type":"VEC3"
		},
		{
			"bufferView":5,
			"componentType":5126,
			"count":1180,
			"type":"VEC3"
		},
		{
			"bufferView":6,
			"componentType":5126,
			"count":1180,
			"type":"VEC2"
		},
		{
			"bufferView":7,
			"componentType":5123,
			"count":1962,
			"type":"SCALAR"
		}
	],
	"bufferViews":[
		{
			"buffer":0,
			"byteLength":3204,
			"byteOffset":0,
			"target":34962
		},
		{
			"buffer":0,
			"byteLength":3204,
			"byteOffset":3204,
			"target":34962
		},
		{
			"buffer":0,
			"byteLength":2136,
			"byteOffset":6408,
			"target":34962
		},
		{
			"buffer":0,
			"byteLength":1128,
			"byteOffset":8544,
			"target":34963
		},
		{
			"buffer":0,
			"byteLength":14160,
			"byteOffset":9672,
			"target":34962
		},
		{
			"buffer":0,
			"byteLength":14160,
			"byteOffset":23832,
			"target":34962
		},
		{
			"buffer":0,
			"byteLength":9440,
			"byteOffset":37992,
			"target":34962
		},
		{
			"buffer":0,
			"byteLength":3924,
			"byteOffset":47432,
			"target":34963
		}
	],
	"buffers":[
		{
			"byteLength":51356,
			"uri":"data:application/octet-stream;base64,"
		}
	]
}
