{
	"asset":{
		"generator":"Khronos glTF Blender I/O v3.6.27",
		"version":"2.0"
	},
	"scene":0,
	"scenes":[
		{
			"name":"Scene",
			"nodes":[
				0,
				1,
				2,
				3,
				4,
				5,
				6,
				7,
				8,
				9,
				10,
				11,
				12,
				13,
				14,
				15,
				16
			]
		}
	],
	"nodes":[
		{
			"mesh":0,
			"name":"pyramid<trimesh>",
			"translation":[
				-80,
				-0.07773017883300781,
				0.4031393826007843
			]
		},
		{
			"mesh":1,
			"name":"towers<trimesh>",
			"translation":[
				-79.99984741210938,
				0,
				0.4031562805175781
			]
		},
		{
			"mesh":2,
			"name":"Plane.099",
			"rotation":[
				0.7071068286895752,
				0,
				0,
				0.7071068286895752
			],
			"scale":[
				4,
				4,
				4
			],
			"translation":[
				-43,
				4,
				16
			]
		},
		{
			"mesh":3,
			"name":"Plane.100",
			"rotation":[
				0.7071068286895752,
				0,
				0,
				0.7071068286895752
			],
			"scale":[
				4,
				4,
				4
			],
			"translation":[
				-51,
				4,
				16
			]
		},
		{
			"mesh":4,
			"name":"Plane.101",
			"rotation":[
				0.7071068286895752,
				0,
				0,
				0.7071068286895752
			],
			"scale":[
				4,
				4,
				4
			],
			"translation":[
				-59,
				4,
				16
			]
		},
		{
			"mesh":5,
			"name":"Plane.102",
			"rotation":[
				0.7071068286895752,
				0,
				0,
				0.7071068286895752
			],
			"scale":[
				4,
				4,
				4
			],
			"translation":[
				-67,
				4,
				16
			]
		},
		{
			"mesh":6,
			"name":"Plane.104",
			"rotation":[
				0,
				0.7071068286895752,
				-0.7071068286895752,
				1.1520233300643667e-07
			],
			"scale":[
				4,
				4,
				4
			],
			"translation":[
				-59,
				4,
				32
			]
		},
		{
			"mesh":7,
			"name":"Plane.105",
			"rotation":[
				0,
				0.7071068286895752,
				-0.7071068286895752,
				1.1520233300643667e-07
			],
			"scale":[
				4,
				4,
				4
			],
			"translation":[
				-51,
				4,
				32
			]
		},
		{
			"mesh":8,
			"name":"Plane.106",
			"rotation":[
				0,
				0.7071068286895752,
				-0.7071068286895752,
				1.1520233300643667e-07
			],
			"scale":[
				4,
				4,
				4
			],
			"translation":[
				-43,
				4,
				32
			]
		},
		{
			"mesh":9,
			"name":"Plane.107",
			"scale":[
				4,
				4,
				4
			],
			"translation":[
				-43,
				0,
				20
			]
		},
		{
			"mesh":10,
			"name":"Plane.108",
			"scale":[
				4,
				4,
				4
			],
			"translation":[
				-51,
				0,
				20
			]
		},
		{
			"mesh":11,
			"name":"Plane.109",
			"scale":[
				4,
				4,
				4
			],
			"translation":[
				-59,
				0,
				20
			]
		},
		{
			"mesh":12,
			"name":"Plane.110",
			"scale":[
				4,
				4,
				4
			],
			"translation":[
				-67,
				0,
				20
			]
		},
		{
			"mesh":13,
			"name":"Plane.111",
			"scale":[
				4,
				4,
				4
			],
			"translation":[
				-43,
				0,
				28
			]
		},
		{
			"mesh":14,
			"name":"Plane.112",
			"scale":[
				4,
				4,
				4
			],
			"translation":[
				-51,
				0,
				28
			]
		},
		{
			"mesh":15,
			"name":"Plane.113",
			"scale":[
				4,
				4,
				4
			],
			"translation":[
				-59,
				0,
				28
			]
		},
		{
			"mesh":16,
			"name":"Plane.114",
			"scale":[
				4,
				4,
				4
			],
			"translation":[
				-67,
				0,
				28
			]
		}
	],
	"materials":[
		{
			"doubleSided":true,
			"name":"Material",
			"normalTexture":{
				"index":0
			},
			"pbrMetallicRoughness":{
				"baseColorTexture":{
					"index":1
				},
				"metallicFactor":0,
				"roughnessFactor":0.5
			}
		},
		{
			"doubleSided":true,
			"name":"Material.001",
			"pbrMetallicRoughness":{
				"baseColorTexture":{
					"index":2
				},
				"metallicFactor":0,
				"roughnessFactor":0.5
			}
		}
	],
	"meshes":[
		{
			"name":"pyramid<trimesh>",
			"primitives":[
				{
					"attributes":{
						"POSITION":0,
						"NORMAL":1,
						"TEXCOORD_0":2
					},
					"indices":3,
					"material":0
				}
			]
		},
		{
			"name":"towers<trimesh>",
			"primitives":[
				{
					"attributes":{
						"POSITION":4,
						"NORMAL":5,
						"TEXCOORD_0":6
					},
					"indices":7,
					"material":0
				}
			]
		},
		{
			"name":"Plane.148",
			"primitives":[
				{
					"attributes":{
						"POSITION":8,
						"NORMAL":9,
						"TEXCOORD_0":10
					},
					"indices":11,
					"material":0
				}
			]
		},
		{
			"name":"Plane.149",
			"primitives":[
				{
					"attributes":{
						"POSITION":12,
						"NORMAL":13,
						"TEXCOORD_0":14
					},
					"indices":11,
					"material":0
				}
			]
		},
		{
			"name":"Plane.150",
			"primitives":[
				{
					"attributes":{
						"POSITION":15,
						"NORMAL":16,
						"TEXCOORD_0":17
					},
					"indices":11,
					"material":0
				}
			]
		},
		{
			"name":"Plane.151",
			"primitives":[
				{
					"attributes":{
						"POSITION":18,
						"NORMAL":19,
						"TEXCOORD_0":20
					},
					"indices":11,
					"material":0
				}
			]
		},
		{
			"name":"Plane.153",
			"primitives":[
				{
					"attributes":{
						"POSITION":21,
						"NORMAL":22,
						"TEXCOORD_0":23
					},
					"indices":11,
					"material":0
				}
			]
		},
		{
			"name":"Plane.154",
			"primitives":[
				{
					"attributes":{
						"POSITION":24,
						"NORMAL":25,
						"TEXCOORD_0":26
					},
					"indices":11,
					"material":0
				}
			]
		},
		{
			"name":"Plane.155",
			"primitives":[
				{
					"attributes":{
						"POSITION":27,
						"NORMAL":28,
						"TEXCOORD_0":29
					},
					"indices":11,
					"material":0
				}
			]
		},
		{
			"name":"Plane.156",
			"primitives":[
				{
					"attributes":{
						"POSITION":30,
						"NORMAL":31,
						"TEXCOORD_0":32
					},
					"indices":33,
					"material":1
				}
			]
		},
		{
			"name":"Plane.157",
			"primitives":[
				{
					"attributes":{
						"POSITION":34,
						"NORMAL":35,
						"TEXCOORD_0":36
					},
					"indices":33,
					"material":1
				}
			]
		},
		{
			"name":"Plane.158",
			"primitives":[
				{
					"attributes":{
						"POSITION":37,
						"NORMAL":38,
						"TEXCOORD_0":39
					},
					"indices":33,
					"material":1
				}
			]
		},
		{
			"name":"Plane.159",
			"primitives":[
				{
					"attributes":{
						"POSITION":40,
						"NORMAL":41,
						"TEXCOORD_0":42
					},
					"indices":33,
					"material":1
				}
			]
		},
		{
			"name":"Plane.160",
			"primitives":[
				{
					"attributes":{
						"POSITION":43,
						"NORMAL":44,
						"TEXCOORD_0":45
					},
					"indices":33,
					"material":1
				}
			]
		},
		{
			"name":"Plane.161",
			"primitives":[
				{
					"attributes":{
						"POSITION":46,
						"NORMAL":47,
						"TEXCOORD_0":48
					},
					"indices":33,
					"material":1
				}
			]
		},
		{
			"name":"Plane.162",
			"primitives":[
				{
					"attributes":{
						"POSITION":49,
						"NORMAL":50,
						"TEXCOORD_0":51
					},
					"indices":33,
					"material":1
				}
			]
		},
		{
			"name":"Plane.163",
			"primitives":[
				{
					"attributes":{
						"POSITION":52,
						"NORMAL":53,
						"TEXCOORD_0":54
					},
					"indices":33,
					"material":1
				}
			]
		}
	],
	"textures":[
		{
			"sampler":0,
			"source":0
		},
		{
			"sampler":0,
			"source":1
		},
		{
			"sampler":0,
			"source":2
		}
	],
	"images":[
		{
			"bufferView":4,
			"mimeType":"image/png",
			"name":"trim_n_01"
		},
		{
			"bufferView":5,
			"mimeType":"image/png",
			"name":"trim_01"
		},
		{
			"bufferView":36,
			"mimeType":"image/png",
			"name":"ground_tile_01"
		}
	],
	"accessors":[
		{
			"bufferView":0,
			"componentType":5126,
			"count":622,
			"max":[
				55,
				29.29351043701172,
				54.596858978271484
			],
			"min":[
				-55,
				0.07773017883300781,
				-55.403141021728516
			],
			"type":"VEC3"
		},
		{
			"bufferView":1,
			"componentType":5126,
			"count":622,
			"type":"VEC3"
		},
		{
			"bufferView":2,
			"componentType":5126,
			"count":622,
			"type":"VEC2"
		},
		{
			"bufferView":3,
			"componentType":5123,
			"count":1284,
			"type":"SCALAR"
		},
		{
			"bufferView":6,
			"componentType":5126,
			"count":2682,
			"max":[
				69.99984741210938,
				51.88920593261719,
				69.59684753417969
			],
			"min":[
				-69.99984741210938,
				-1.1107978820800781,
				-69.59684753417969
			],
			"type":"VEC3"
		},
		{
			"bufferView":7,
			"componentType":5126,
			"count":2682,
			"type":"VEC3"
		},
		{
			"bufferView":8,
			"componentType":5126,
			"count":2682,
			"type":"VEC2"
		},
		{
			"bufferView":9,
			"componentType":5123,
			"count":5184,
			"type":"SCALAR"
		},
		{
			"bufferView":10,
			"componentType":5126,
			"count":66,
			"max":[
				1,
				0.11483419686555862,
				1
			],
			"min":[
				-1,
				0,
				-1
			],
			"type":"VEC3"
		},
		{
			"bufferView":11,
			"componentType":5126,
			"count":66,
			"type":"VEC3"
		},
		{
			"bufferView":12,
			"componentType":5126,
			"count":66,
			"type":"VEC2"
		},
		{
			"bufferView":13,
			"componentType":5123,
			"count":102,
			"type":"SCALAR"
		},
		{
			"bufferView":14,
			"componentType":5126,
			"count":66,
			"max":[
				1,
				0.11483419686555862,
				1
			],
			"min":[
				-1,
				0,
				-1
			],
			"type":"VEC3"
		},
		{
			"bufferView":15,
			"componentType":5126,
			"count":66,
			"type":"VEC3"
		},
		{
			"bufferView":16,
			"componentType":5126,
			"count":66,
			"type":"VEC2"
		},
		{
			"bufferView":17,
			"componentType":5126,
			"count":66,
			"max":[
				1,
				0.11483419686555862,
				1
			],
			"min":[
				-1,
				0,
				-1
			],
			"type":"VEC3"
		},
		{
			"bufferView":18,
			"componentType":5126,
			"count":66,
			"type":"VEC3"
		},
		{
			"bufferView":19,
			"componentType":5126,
			"count":66,
			"type":"VEC2"
		},
		{
			"bufferView":20,
			"componentType":5126,
			"count":66,
			"max":[
				1,
				0.11483419686555862,
				1
			],
			"min":[
				-1,
				0,
				-1
			],
			"type":"VEC3"
		},
		{
			"bufferView":21,
			"componentType":5126,
			"count":66,
			"type":"VEC3"
		},
		{
			"bufferView":22,
			"componentType":5126,
			"count":66,
			"type":"VEC2"
		},
		{
			"bufferView":23,
			"componentType":5126,
			"count":66,
			"max":[
				1,
				0.11483419686555862,
				1
			],
			"min":[
				-1,
				0,
				-1
			],
			"type":"VEC3"
		},
		{
			"bufferView":24,
			"componentType":5126,
			"count":66,
			"type":"VEC3"
		},
		{
			"bufferView":25,
			"componentType":5126,
			"count":66,
			"type":"VEC2"
		},
		{
			"bufferView":26,
			"componentType":5126,
			"count":66,
			"max":[
				1,
				0.11483419686555862,
				1
			],
			"min":[
				-1,
				0,
				-1
			],
			"type":"VEC3"
		},
		{
			"bufferView":27,
			"componentType":5126,
			"count":66,
			"type":"VEC3"
		},
		{
			"bufferView":28,
			"componentType":5126,
			"count":66,
			"type":"VEC2"
		},
		{
			"bufferView":29,
			"componentType":5126,
			"count":66,
			"max":[
				1,
				0.11483419686555862,
				1
			],
			"min":[
				-1,
				0,
				-1
			],
			"type":"VEC3"
		},
		{
			"bufferView":30,
			"componentType":5126,
			"count":66,
			"type":"VEC3"
		},
		{
			"bufferView":31,
			"componentType":5126,
			"count":66,
			"type":"VEC2"
		},
		{
			"bufferView":32,
			"componentType":5126,
			"count":4,
			"max":[
				1,
				0,
				1
			],
			"min":[
				-1,
				0,
				-1
			],
			"type":"VEC3"
		},
		{
			"bufferView":33,
			"componentType":5126,
			"count":4,
			"type":"VEC3"
		},
		{
			"bufferView":34,
			"componentType":5126,
			"count":4,
			"type":"VEC2"
		},
		{
			"bufferView":35,
			"componentType":5123,
			"count":6,
			"type":"SCALAR"
		},
		{
			"bufferView":37,
			"componentType":5126,
			"count":4,
			"max":[
				1,
				0,
				1
			],
			"min":[
				-1,
				0,
				-1
			],
			"type":"VEC3"
		},
		{
			"bufferView":38,
			"componentType":5126,
			"count":4,
			"type":"VEC3"
		},
		{
			"bufferView":39,
			"componentType":5126,
			"count":4,
			"type":"VEC2"
		},
		{
			"bufferView":40,
			"componentType":5126,
			"count":4,
			"max":[
				1,
				0,
				1
			],
			"min":[
				-1,
				0,
				-1
			],
			"type":"VEC3"
		},
		{
			"bufferView":41,
			"componentType":5126,
			"count":4,
			"type":"VEC3"
		},
		{
			"bufferView":42,
			"componentType":5126,
			"count":4,
			"type":"VEC2"
		},
		{
			"bufferView":43,
			"componentType":5126,
			"count":4,
			"max":[
				1,
				0,
				1
			],
			"min":[
				-1,
				0,
				-1
			],
			"type":"VEC3"
		},
		{
			"bufferView":44,
			"componentType":5126,
			"count":4,
			"type":"VEC3"
		},
		{
			"bufferView":45,
			"componentType":5126,
			"count":4,
			"type":"VEC2"
		},
		{
			"bufferView":46,
			"componentType":5126,
			"count":4,
			"max":[
				1,
				0,
				1
			],
			"min":[
				-1,
				0,
				-1
			],
			"type":"VEC3"
		},
		{
			"bufferView":47,
			"componentType":5126,
			"count":4,
			"type":"VEC3"
		},
		{
			"bufferView":48,
			"componentType":5126,
			"count":4,
			"type":"VEC2"
		},
		{
			"bufferView":49,
			"componentType":5126,
			"count":4,
			"max":[
				1,
				0,
				1
			],
			"min":[
				-1,
				0,
				-1
			],
			"type":"VEC3"
		},
		{
			"bufferView":50,
			"componentType":5126,
			"count":4,
			"type":"VEC3"
		},
		{
			"bufferView":51,
			"componentType":5126,
			"count":4,
			"type":"VEC2"
		},
		{
			"bufferView":52,
			"componentType":5126,
			"count":4,
			"max":[
				1,
				0,
				1
			],
			"min":[
				-1,
				0,
				-1
			],
			"type":"VEC3"
		},
		{
			"bufferView":53,
			"componentType":5126,
			"count":4,
			"type":"VEC3"
		},
		{
			"bufferView":54,
			"componentType":5126,
			"count":4,
			"type":"VEC2"
		},
		{
			"bufferView":55,
			"componentType":5126,
			"count":4,
			"max":[
				1,
				0,
				1
			],
			"min":[
				-1,
				0,
				-1
			],
			"type":"VEC3"
		},
		{
			"bufferView":56,
			"componentType":5126,
			"count":4,
			"type":"VEC3"
		},
		{
			"bufferView":57,
			"componentType":5126,
			"count":4,
			"type":"VEC2"
		}
	],
	"bufferViews":[
		{
			"buffer":0,
			"byteLength":7464,
			"byteOffset":0,
			"target":34962
		},
		{
			"buffer":0,
			"byteLength":7464,
			"byteOffset":7464,
			"target":34962
		},
		{
			"buffer":0,
			"byteLength":4976,
			"byteOffset":14928,
			"target":34962
		},
		{
			"buffer":0,
			"byteLength":2568,
			"byteOffset":19904,
			"target":34963
		},
		{
			"buffer":0,
			"byteLength":951457,
			"byteOffset":22472
		},
		{
			"buffer":0,
			"byteLength":695460,
			"byteOffset":973932
		},
		{
			"buffer":0,
			"byteLength":32184,
			"byteOffset":1669392,
			"target":34962
		},
		{
			"buffer":0,
			"byteLength":32184,
			"byteOffset":1701576,
			"target":34962
		},
		{
			"buffer":0,
			"byteLength":21456,
			"byteOffset":1733760,
			"target":34962
		},
		{
			"buffer":0,
			"byteLength":10368,
			"byteOffset":1755216,
			"target":34963
		},
		{
			"buffer":0,
			"byteLength":792,
			"byteOffset":1765584,
			"target":34962
		},
		{
			"buffer":0,
			"byteLength":792,
			"byteOffset":1766376,
			"target":34962
		},
		{
			"buffer":0,
			"byteLength":528,
			"byteOffset":1767168,
			"target":34962
		},
		{
			"buffer":0,
			"byteLength":204,
			"byteOffset":1767696,
			"target":34963
		},
		{
			"buffer":0,
			"byteLength":792,
			"byteOffset":1767900,
			"target":34962
		},
		{
			"buffer":0,
			"byteLength":792,
			"byteOffset":1768692,
			"target":34962
		},
		{
			"buffer":0,
			"byteLength":528,
			"byteOffset":1769484,
			"target":34962
		},
		{
			"buffer":0,
			"byteLength":792,
			"byteOffset":1770012,
			"target":34962
		},
		{
			"buffer":0,
			"byteLength":792,
			"byteOffset":1770804,
			"target":34962
		},
		{
			"buffer":0,
			"byteLength":528,
			"byteOffset":1771596,
			"target":34962
		},
		{
			"buffer":0,
			"byteLength":792,
			"byteOffset":1772124,
			"target":34962
		},
		{
			"buffer":0,
			"byteLength":792,
			"byteOffset":1772916,
			"target":34962
		},
		{
			"buffer":0,
			"byteLength":528,
			"byteOffset":1773708,
			"target":34962
		},
		{
			"buffer":0,
			"byteLength":792,
			"byteOffset":1774236,
			"target":34962
		},
		{
			"buffer":0,
			"byteLength":792,
			"byteOffset":1775028,
			"target":34962
		},
		{
			"buffer":0,
			"byteLength":528,
			"byteOffset":1775820,
			"target":34962
		},
		{
			"buffer":0,
			"byteLength":792,
			"byteOffset":1776348,
			"target":34962
		},
		{
			"buffer":0,
			"byteLength":792,
			"byteOffset":1777140,
			"target":34962
		},
		{
			"buffer":0,
			"byteLength":528,
			"byteOffset":1777932,
			"target":34962
		},
		{
			"buffer":0,
			"byteLength":792,
			"byteOffset":1778460,
			"target":34962
		},
		{
			"buffer":0,
			"byteLength":792,
			"byteOffset":1779252,
			"target":34962
		},
		{
			"buffer":0,
			"byteLength":528,
			"byteOffset":1780044,
			"target":34962
		},
		{
			"buffer":0,
			"byteLength":48,
			"byteOffset":1780572,
			"target":34962
		},
		{
			"buffer":0,
			"byteLength":48,
			"byteOffset":1780620,
			"target":34962
		},
		{
			"buffer":0,
			"byteLength":32,
			"byteOffset":1780668,
			"target":34962
		},
		{
			"buffer":0,
			"byteLength":12,
			"byteOffset":1780700,
			"target":34963
		},
		{
			"buffer":0,
			"byteLength":736911,
			"byteOffset":1780712
		},
		{
			"buffer":0,
			"byteLength":48,
			"byteOffset":2517624,
			"target":34962
		},
		{
			"buffer":0,
			"byteLength":48,
			"byteOffset":2517672,
			"target":34962
		},
		{
			"buffer":0,
			"byteLength":32,
			"byteOffset":2517720,
			"target":34962
		},
		{
			"buffer":0,
			"byteLength":48,
			"byteOffset":2517752,
			"target":34962
		},
		{
			"buffer":0,
			"byteLength":48,
			"byteOffset":2517800,
			"target":34962
		},
		{
			"buffer":0,
			"byteLength":32,
			"byteOffset":2517848,
			"target":34962
		},
		{
			"buffer":0,
			"byteLength":48,
			"byteOffset":2517880,
			"target":34962
		},
		{
			"buffer":0,
			"byteLength":48,
			"byteOffset":2517928,
			"target":34962
		},
		{
			"buffer":0,
			"byteLength":32,
			"byteOffset":2517976,
			"target":34962
		},
		{
			"buffer":0,
			"byteLength":48,
			"byteOffset":2518008,
			"target":34962
		},
		{
			"buffer":0,
			"byteLength":48,
			"byteOffset":2518056,
			"target":34962
		},
		{
			"buffer":0,
			"byteLength":32,
			"byteOffset":2518104,
			"target":34962
		},
		{
			"buffer":0,
			"byteLength":48,
			"byteOffset":2518136,
			"target":34962
		},
		{
			"buffer":0,
			"byteLength":48,
			"byteOffset":2518184,
			"target":34962
		},
		{
			"buffer":0,
			"byteLength":32,
			"byteOffset":2518232,
			"target":34962
		},
		{
			"buffer":0,
			"byteLength":48,
			"byteOffset":2518264,
			"target":34962
		},
		{
			"buffer":0,
			"byteLength":48,
			"byteOffset":2518312,
			"target":34962
		},
		{
			"buffer":0,
			"byteLength":32,
			"byteOffset":2518360,
			"target":34962
		},
		{
			"buffer":0,
			"byteLength":48,
			"byteOffset":2518392,
			"target":34962
		},
		{
			"buffer":0,
			"byteLength":48,
			"byteOffset":2518440,
			"target":34962
		},
		{
			"buffer":0,
			"byteLength":32,
			"byteOffset":2518488,
			"target":34962
		}
	],
	"samplers":[
		{
			"magFilter":9729,
			"minFilter":9987
		}
	],
	"buffers":[
		{
			"byteLength":2518520,
			"uri":"data:application/octet-stream;base64,"
		}
	]
}
