{
	"asset":{
		"generator":"Khronos glTF Blender I/O v3.6.27",
		"version":"2.0"
	},
	"scene":0,
	"scenes":[
		{
			"name":"Scene",
			"nodes":[
				0,
				1,
				2,
				3,
				4,
				5
			]
		}
	],
	"nodes":[
		{
			"mesh":0,
			"name":"GunBody"
		},
		{
			"mesh":1,
			"name":"Barrel"
		},
		{
			"mesh":2,
			"name":"Grip"
		},
		{
			"mesh":3,
			"name":"Stock"
		},
		{
			"mesh":4,
			"name":"Trigger"
		},
		{
			"mesh":5,
			"name":"Cube"
		}
	],
	"materials":[
		{
			"doubleSided":true,
			"name":"Material.002",
			"pbrMetallicRoughness":{
				"baseColorTexture":{
					"index":0
				},
				"metallicFactor":0,
				"roughnessFactor":0.5
			}
		}
	],
	"meshes":[
		{
			"name":"Cube.003",
			"primitives":[
				{
					"attributes":{
						"POSITION":0,
						"NORMAL":1,
						"TEXCOORD_0":2
					},
					"indices":3,
					"material":0
				}
			]
		},
		{
			"name":"Cylinder",
			"primitives":[
				{
					"attributes":{
						"POSITION":4,
						"NORMAL":5,
						"TEXCOORD_0":6
					},
					"indices":7,
					"material":0
				}
			]
		},
		{
			"name":"Cylinder.001",
			"primitives":[
				{
					"attributes":{
						"POSITION":8,
						"NORMAL":9,
						"TEXCOORD_0":10
					},
					"indices":11,
					"material":0
				}
			]
		},
		{
			"name":"Cylinder.002",
			"primitives":[
				{
					"attributes":{
						"POSITION":12,
						"NORMAL":13,
						"TEXCOORD_0":14
					},
					"indices":15,
					"material":0
				}
			]
		},
		{
			"name":"Cube.004",
			"primitives":[
				{
					"attributes":{
						"POSITION":16,
						"NORMAL":17,
						"TEXCOORD_0":18
					},
					"indices":19,
					"material":0
				}
			]
		},
		{
			"name":"Cube.001",
			"primitives":[
				{
					"attributes":{
						"POSITION":20,
						"NORMAL":21,
						"TEXCOORD_0":22
					},
					"indices":23
				}
			]
		}
	],
	"textures":[
		{
			"sampler":0,
			"source":0
		}
	],
	"images":[
		{
			"mimeType":"image/png",
			"name":"metal_a_01",
			"uri":"metal_a_01.png"
		}
	],
	"accessors":[
		{
			"bufferView":0,
			"componentType":5126,
			"count":2833,
			"max":[
				0.08829803764820099,
				0.5394585728645325,
				0.21513965725898743
			],
			"min":[
				-0.08829811960458755,
				-0.5161512494087219,
				-1.1433619260787964
			],
			"type":"VEC3"
		},
		{
			"bufferView":1,
			"componentType":5126,
			"count":2833,
			"type":"VEC3"
		},
		{
			"bufferView":2,
			"componentType":5126,
			"count":2833,
			"type":"VEC2"
		},
		{
			"bufferView":3,
			"componentType":5123,
			"count":3126,
			"type":"SCALAR"
		},
		{
			"bufferView":4,
			"componentType":5126,
			"count":764,
			"max":[
				0.06577779352664948,
				0.3906593918800354,
				-0.20868508517742157
			],
			"min":[
				-0.06577801704406738,
				0.25910359621047974,
				-1.329382300376892
			],
			"type":"VEC3"
		},
		{
			"bufferView":5,
			"componentType":5126,
			"count":764,
			"type":"VEC3"
		},
		{
			"bufferView":6,
			"componentType":5126,
			"count":764,
			"type":"VEC2"
		},
		{
			"bufferView":7,
			"componentType":5123,
			"count":780,
			"type":"SCALAR"
		},
		{
			"bufferView":8,
			"componentType":5126,
			"count":370,
			"max":[
				0.09431182593107224,
				0.1644625961780548,
				-0.7958643436431885
			],
			"min":[
				-0.09431198984384537,
				-0.3541458249092102,
				-1.1317768096923828
			],
			"type":"VEC3"
		},
		{
			"bufferView":9,
			"componentType":5126,
			"count":370,
			"type":"VEC3"
		},
		{
			"bufferView":10,
			"componentType":5126,
			"count":370,
			"type":"VEC2"
		},
		{
			"bufferView":11,
			"componentType":5123,
			"count":420,
			"type":"SCALAR"
		},
		{
			"bufferView":12,
			"componentType":5126,
			"count":1042,
			"max":[
				0.11034322530031204,
				0.4165247082710266,
				1.3152072429656982
			],
			"min":[
				-0.11034304648637772,
				-0.31842437386512756,
				-0.34431830048561096
			],
			"type":"VEC3"
		},
		{
			"bufferView":13,
			"componentType":5126,
			"count":1042,
			"type":"VEC3"
		},
		{
			"bufferView":14,
			"componentType":5126,
			"count":1042,
			"type":"VEC2"
		},
		{
			"bufferView":15,
			"componentType":5123,
			"count":1158,
			"type":"SCALAR"
		},
		{
			"bufferView":16,
			"componentType":5126,
			"count":130,
			"max":[
				0.013814103789627552,
				0.14339454472064972,
				-0.2598839998245239
			],
			"min":[
				-0.013814162462949753,
				0.007100176531821489,
				-0.41423600912094116
			],
			"type":"VEC3"
		},
		{
			"bufferView":17,
			"componentType":5126,
			"count":130,
			"type":"VEC3"
		},
		{
			"bufferView":18,
			"componentType":5126,
			"count":130,
			"type":"VEC2"
		},
		{
			"bufferView":19,
			"componentType":5123,
			"count":132,
			"type":"SCALAR"
		},
		{
			"bufferView":20,
			"componentType":5126,
			"count":204,
			"max":[
				0.2307366579771042,
				0.026989180594682693,
				0.5153348445892334
			],
			"min":[
				-0.2307366579771042,
				-0.028238683938980103,
				-1.3449866771697998
			],
			"type":"VEC3"
		},
		{
			"bufferView":21,
			"componentType":5126,
			"count":204,
			"type":"VEC3"
		},
		{
			"bufferView":22,
			"componentType":5126,
			"count":204,
			"type":"VEC2"
		},
		{
			"bufferView":23,
			"componentType":5123,
			"count":324,
			"type":"SCALAR"
		}
	],
	"bufferViews":[
		{
			"buffer":0,
			"byteLength":33996,
			"byteOffset":0,
			"target":34962
		},
		{
			"buffer":0,
			"byteLength":33996,
			"byteOffset":33996,
			"target":34962
		},
		{
			"buffer":0,
			"byteLength":22664,
			"byteOffset":67992,
			"target":34962
		},
		{
			"buffer":0,
			"byteLength":6252,
			"byteOffset":90656,
			"target":34963
		},
		{
			"buffer":0,
			"byteLength":9168,
			"byteOffset":96908,
			"target":34962
		},
		{
			"buffer":0,
			"byteLength":9168,
			"byteOffset":106076,
			"target":34962
		},
		{
			"buffer":0,
			"byteLength":6112,
			"byteOffset":115244,
			"target":34962
		},
		{
			"buffer":0,
			"byteLength":1560,
			"byteOffset":121356,
			"target":34963
		},
		{
			"buffer":0,
			"byteLength":4440,
			"byteOffset":122916,
			"target":34962
		},
		{
			"buffer":0,
			"byteLength":4440,
			"byteOffset":127356,
			"target":34962
		},
		{
			"buffer":0,
			"byteLength":2960,
			"byteOffset":131796,
			"target":34962
		},
		{
			"buffer":0,
			"byteLength":840,
			"byteOffset":134756,
			"target":34963
		},
		{
			"buffer":0,
			"byteLength":12504,
			"byteOffset":135596,
			"target":34962
		},
		{
			"buffer":0,
			"byteLength":12504,
			"byteOffset":148100,
			"target":34962
		},
		{
			"buffer":0,
			"byteLength":8336,
			"byteOffset":160604,
			"target":34962
		},
		{
			"buffer":0,
			"byteLength":2316,
			"byteOffset":168940,
			"target":34963
		},
		{
			"buffer":0,
			"byteLength":1560,
			"byteOffset":171256,
			"target":34962
		},
		{
			"buffer":0,
			"byteLength":1560,
			"byteOffset":172816,
			"target":34962
		},
		{
			"buffer":0,
			"byteLength":1040,
			"byteOffset":174376,
			"target":34962
		},
		{
			"buffer":0,
			"byteLength":264,
			"byteOffset":175416,
			"target":34963
		},
		{
			"buffer":0,
			"byteLength":2448,
			"byteOffset":175680,
			"target":34962
		},
		{
			"buffer":0,
			"byteLength":2448,
			"byteOffset":178128,
			"target":34962
		},
		{
			"buffer":0,
			"byteLength":1632,
			"byteOffset":180576,
			"target":34962
		},
		{
			"buffer":0,
			"byteLength":648,
			"byteOffset":182208,
			"target":34963
		}
	],
	"samplers":[
		{
			"magFilter":9729,
			"minFilter":9987
		}
	],
	"buffers":[
		{
			"byteLength":182856,
			"uri":"knife_01.bin"
		}
	]
}
