{
	"asset":{
		"generator":"Khronos glTF Blender I/O v3.6.27",
		"version":"2.0"
	},
	"scene":0,
	"scenes":[
		{
			"name":"Scene",
			"nodes":[
				0,
				1,
				2,
				3,
				4
			]
		}
	],
	"nodes":[
		{
			"mesh":0,
			"name":"GunBody"
		},
		{
			"mesh":1,
			"name":"Barrel"
		},
		{
			"mesh":2,
			"name":"Trigger"
		},
		{
			"mesh":3,
			"name":"Mag"
		},
		{
			"mesh":4,
			"name":"Stock"
		}
	],
	"materials":[
		{
			"doubleSided":true,
			"name":"Material.001",
			"pbrMetallicRoughness":{
				"baseColorTexture":{
					"index":0
				},
				"metallicFactor":0,
				"roughnessFactor":0.5
			}
		}
	],
	"meshes":[
		{
			"name":"Body",
			"primitives":[
				{
					"attributes":{
						"POSITION":0,
						"NORMAL":1,
						"TEXCOORD_0":2
					},
					"indices":3,
					"material":0
				}
			]
		},
		{
			"name":"Barrel",
			"primitives":[
				{
					"attributes":{
						"POSITION":4,
						"NORMAL":5,
						"TEXCOORD_0":6
					},
					"indices":7,
					"material":0
				}
			]
		},
		{
			"name":"Trigger",
			"primitives":[
				{
					"attributes":{
						"POSITION":8,
						"NORMAL":9,
						"TEXCOORD_0":10
					},
					"indices":11,
					"material":0
				}
			]
		},
		{
			"name":"Mag",
			"primitives":[
				{
					"attributes":{
						"POSITION":12,
						"NORMAL":13,
						"TEXCOORD_0":14
					},
					"indices":15
				}
			]
		},
		{
			"name":"Stock",
			"primitives":[
				{
					"attributes":{
						"POSITION":16,
						"NORMAL":17,
						"TEXCOORD_0":18
					},
					"indices":19
				}
			]
		}
	],
	"textures":[
		{
			"sampler":0,
			"source":0
		}
	],
	"images":[
		{
			"mimeType":"image/png",
			"name":"metal_a_01",
			"uri":"metal_a_01.png"
		}
	],
	"accessors":[
		{
			"bufferView":0,
			"componentType":5126,
			"count":2833,
			"max":[
				0.08829803764820099,
				0.5394585728645325,
				0.21513965725898743
			],
			"min":[
				-0.08829811960458755,
				-0.5161512494087219,
				-1.90951406955719
			],
			"type":"VEC3"
		},
		{
			"bufferView":1,
			"componentType":5126,
			"count":2833,
			"type":"VEC3"
		},
		{
			"bufferView":2,
			"componentType":5126,
			"count":2833,
			"type":"VEC2"
		},
		{
			"bufferView":3,
			"componentType":5123,
			"count":3126,
			"type":"SCALAR"
		},
		{
			"bufferView":4,
			"componentType":5126,
			"count":764,
			"max":[
				0.06577779352664948,
				0.3906593918800354,
				-1.0828913450241089
			],
			"min":[
				-0.06577801704406738,
				0.25910359621047974,
				-2.2035884857177734
			],
			"type":"VEC3"
		},
		{
			"bufferView":5,
			"componentType":5126,
			"count":764,
			"type":"VEC3"
		},
		{
			"bufferView":6,
			"componentType":5126,
			"count":764,
			"type":"VEC2"
		},
		{
			"bufferView":7,
			"componentType":5123,
			"count":780,
			"type":"SCALAR"
		},
		{
			"bufferView":8,
			"componentType":5126,
			"count":130,
			"max":[
				0.013814103789627552,
				0.14339454472064972,
				-0.2598839998245239
			],
			"min":[
				-0.013814162462949753,
				0.007100176531821489,
				-0.41423600912094116
			],
			"type":"VEC3"
		},
		{
			"bufferView":9,
			"componentType":5126,
			"count":130,
			"type":"VEC3"
		},
		{
			"bufferView":10,
			"componentType":5126,
			"count":130,
			"type":"VEC2"
		},
		{
			"bufferView":11,
			"componentType":5123,
			"count":132,
			"type":"SCALAR"
		},
		{
			"bufferView":12,
			"componentType":5126,
			"count":234,
			"max":[
				0.058432672172784805,
				0.2078772634267807,
				-0.887851357460022
			],
			"min":[
				-0.058432672172784805,
				-0.5560349225997925,
				-1.4451276063919067
			],
			"type":"VEC3"
		},
		{
			"bufferView":13,
			"componentType":5126,
			"count":234,
			"type":"VEC3"
		},
		{
			"bufferView":14,
			"componentType":5126,
			"count":234,
			"type":"VEC2"
		},
		{
			"bufferView":15,
			"componentType":5123,
			"count":372,
			"type":"SCALAR"
		},
		{
			"bufferView":16,
			"componentType":5126,
			"count":145,
			"max":[
				0.06544862687587738,
				0.41261136531829834,
				1.1380186080932617
			],
			"min":[
				-0.06544864177703857,
				-0.004911541938781738,
				0.0980985015630722
			],
			"type":"VEC3"
		},
		{
			"bufferView":17,
			"componentType":5126,
			"count":145,
			"type":"VEC3"
		},
		{
			"bufferView":18,
			"componentType":5126,
			"count":145,
			"type":"VEC2"
		},
		{
			"bufferView":19,
			"componentType":5123,
			"count":276,
			"type":"SCALAR"
		}
	],
	"bufferViews":[
		{
			"buffer":0,
			"byteLength":33996,
			"byteOffset":0,
			"target":34962
		},
		{
			"buffer":0,
			"byteLength":33996,
			"byteOffset":33996,
			"target":34962
		},
		{
			"buffer":0,
			"byteLength":22664,
			"byteOffset":67992,
			"target":34962
		},
		{
			"buffer":0,
			"byteLength":6252,
			"byteOffset":90656,
			"target":34963
		},
		{
			"buffer":0,
			"byteLength":9168,
			"byteOffset":96908,
			"target":34962
		},
		{
			"buffer":0,
			"byteLength":9168,
			"byteOffset":106076,
			"target":34962
		},
		{
			"buffer":0,
			"byteLength":6112,
			"byteOffset":115244,
			"target":34962
		},
		{
			"buffer":0,
			"byteLength":1560,
			"byteOffset":121356,
			"target":34963
		},
		{
			"buffer":0,
			"byteLength":1560,
			"byteOffset":122916,
			"target":34962
		},
		{
			"buffer":0,
			"byteLength":1560,
			"byteOffset":124476,
			"target":34962
		},
		{
			"buffer":0,
			"byteLength":1040,
			"byteOffset":126036,
			"target":34962
		},
		{
			"buffer":0,
			"byteLength":264,
			"byteOffset":127076,
			"target":34963
		},
		{
			"buffer":0,
			"byteLength":2808,
			"byteOffset":127340,
			"target":34962
		},
		{
			"buffer":0,
			"byteLength":2808,
			"byteOffset":130148,
			"target":34962
		},
		{
			"buffer":0,
			"byteLength":1872,
			"byteOffset":132956,
			"target":34962
		},
		{
			"buffer":0,
			"byteLength":744,
			"byteOffset":134828,
			"target":34963
		},
		{
			"buffer":0,
			"byteLength":1740,
			"byteOffset":135572,
			"target":34962
		},
		{
			"buffer":0,
			"byteLength":1740,
			"byteOffset":137312,
			"target":34962
		},
		{
			"buffer":0,
			"byteLength":1160,
			"byteOffset":139052,
			"target":34962
		},
		{
			"buffer":0,
			"byteLength":552,
			"byteOffset":140212,
			"target":34963
		}
	],
	"samplers":[
		{
			"magFilter":9729,
			"minFilter":9987
		}
	],
	"buffers":[
		{
			"byteLength":140764,
			"uri":"rifle_01.bin"
		}
	]
}
