{
	"asset":{
		"generator":"Khronos glTF Blender I/O v3.6.27",
		"version":"2.0"
	},
	"scene":0,
	"scenes":[
		{
			"name":"Scene",
			"nodes":[
				0
			]
		}
	],
	"nodes":[
		{
			"mesh":0,
			"name":"GunBody"
		}
	],
	"materials":[
		{
			"doubleSided":true,
			"name":"Material.001",
			"pbrMetallicRoughness":{
				"baseColorTexture":{
					"index":0
				},
				"metallicFactor":0,
				"roughnessFactor":0.5
			}
		}
	],
	"meshes":[
		{
			"name":"Body",
			"primitives":[
				{
					"attributes":{
						"POSITION":0,
						"NORMAL":1,
						"TEXCOORD_0":2
					},
					"indices":3,
					"material":0
				}
			]
		}
	],
	"textures":[
		{
			"sampler":0,
			"source":0
		}
	],
	"images":[
		{
			"bufferView":4,
			"mimeType":"image/png",
			"name":"painted_noise"
		}
	],
	"accessors":[
		{
			"bufferView":0,
			"componentType":5126,
			"count":2498,
			"max":[
				0.08829803764820099,
				0.5394585728645325,
				1.1380186080932617
			],
			"min":[
				-0.08829811960458755,
				-0.5560349225997925,
				-2.2035884857177734
			],
			"type":"VEC3"
		},
		{
			"bufferView":1,
			"componentType":5126,
			"count":2498,
			"type":"VEC3"
		},
		{
			"bufferView":2,
			"componentType":5126,
			"count":2498,
			"type":"VEC2"
		},
		{
			"bufferView":3,
			"componentType":5123,
			"count":4674,
			"type":"SCALAR"
		}
	],
	"bufferViews":[
		{
			"buffer":0,
			"byteLength":29976,
			"byteOffset":0,
			"target":34962
		},
		{
			"buffer":0,
			"byteLength":29976,
			"byteOffset":29976,
			"target":34962
		},
		{
			"buffer":0,
			"byteLength":19984,
			"byteOffset":59952,
			"target":34962
		},
		{
			"buffer":0,
			"byteLength":9348,
			"byteOffset":79936,
			"target":34963
		},
		{
			"buffer":0,
			"byteLength":399229,
			"byteOffset":89284
		}
	],
	"samplers":[
		{
			"magFilter":9729,
			"minFilter":9987
		}
	],
	"buffers":[
		{
			"byteLength":488516,
			"uri":"data:application/octet-stream;base64,"
		}
	]
}
