{
	"asset":{
		"generator":"Khronos glTF Blender I/O v3.6.27",
		"version":"2.0"
	},
	"scene":0,
	"scenes":[
		{
			"name":"Scene",
			"nodes":[
				0
			]
		}
	],
	"nodes":[
		{
			"mesh":0,
			"name":"Cube"
		}
	],
	"materials":[
		{
			"doubleSided":true,
			"name":"Material.003",
			"pbrMetallicRoughness":{
				"baseColorTexture":{
					"index":0
				},
				"metallicFactor":0,
				"roughnessFactor":0.5
			}
		}
	],
	"meshes":[
		{
			"name":"Cube.002",
			"primitives":[
				{
					"attributes":{
						"POSITION":0,
						"NORMAL":1,
						"TEXCOORD_0":2
					},
					"indices":3,
					"material":0
				}
			]
		}
	],
	"textures":[
		{
			"sampler":0,
			"source":0
		}
	],
	"images":[
		{
			"bufferView":4,
			"mimeType":"image/png",
			"name":"rgp_tex"
		}
	],
	"accessors":[
		{
			"bufferView":0,
			"componentType":5126,
			"count":3400,
			"max":[
				0.31608566641807556,
				0.8090278506278992,
				0.591188371181488
			],
			"min":[
				-0.31608566641807556,
				-0.5136991739273071,
				-2.1974868774414062
			],
			"type":"VEC3"
		},
		{
			"bufferView":1,
			"componentType":5126,
			"count":3400,
			"type":"VEC3"
		},
		{
			"bufferView":2,
			"componentType":5126,
			"count":3400,
			"type":"VEC2"
		},
		{
			"bufferView":3,
			"componentType":5123,
			"count":5454,
			"type":"SCALAR"
		}
	],
	"bufferViews":[
		{
			"buffer":0,
			"byteLength":40800,
			"byteOffset":0,
			"target":34962
		},
		{
			"buffer":0,
			"byteLength":40800,
			"byteOffset":40800,
			"target":34962
		},
		{
			"buffer":0,
			"byteLength":27200,
			"byteOffset":81600,
			"target":34962
		},
		{
			"buffer":0,
			"byteLength":10908,
			"byteOffset":108800,
			"target":34963
		},
		{
			"buffer":0,
			"byteLength":141663,
			"byteOffset":119708
		}
	],
	"samplers":[
		{
			"magFilter":9729,
			"minFilter":9987
		}
	],
	"buffers":[
		{
			"byteLength":261372,
			"uri":"data:application/octet-stream;base64,"
		}
	]
}
