{
    "asset" : {
        "generator" : "Khronos glTF Blender I/O v1.2.75",
        "version" : "2.0"
    },
    "scene" : 0,
    "scenes" : [
        {
            "name" : "Scene",
            "nodes" : [
                0,
                1,
                2
            ]
        }
    ],
    "nodes" : [
        {
            "mesh" : 0,
            "name" : "Gun",
            "translation" : [
                -4,
                2.036430835723877,
                8.399407386779785
            ]
        },
        {
            "mesh" : 1,
            "name" : "Pump",
            "translation" : [
                -4,
                2.024576187133789,
                6.900857925415039
            ]
        },
        {
            "mesh" : 2,
            "name" : "Trigger.001",
            "translation" : [
                -4,
                2.036430835723877,
                8.399407386779785
            ]
        }
    ],
    "materials" : [
        {
            "doubleSided" : true,
            "emissiveFactor" : [
                0,
                0,
                0
            ],
            "name" : "GunMetal",
            "pbrMetallicRoughness" : {
                "baseColorFactor" : [
                    0.011087688617408276,
                    0.011087688617408276,
                    0.011087688617408276,
                    1
                ],
                "metallicFactor" : 0,
                "roughnessFactor" : 0.4000000059604645
            }
        },
        {
            "doubleSided" : true,
            "emissiveFactor" : [
                0,
                0,
                0
            ],
            "name" : "Wood",
            "pbrMetallicRoughness" : {
                "baseColorFactor" : [
                    0.0034670045133680105,
                    0.03310271352529526,
                    0.002921926323324442,
                    1
                ],
                "metallicFactor" : 0,
                "roughnessFactor" : 0.4000000059604645
            }
        }
    ],
    "meshes" : [
        {
            "name" : "Gun",
            "primitives" : [
                {
                    "attributes" : {
                        "POSITION" : 0,
                        "NORMAL" : 1,
                        "TEXCOORD_0" : 2
                    },
                    "indices" : 3,
                    "material" : 0
                }
            ]
        },
        {
            "name" : "Pump",
            "primitives" : [
                {
                    "attributes" : {
                        "POSITION" : 4,
                        "NORMAL" : 5,
                        "TEXCOORD_0" : 6
                    },
                    "indices" : 7,
                    "material" : 1
                }
            ]
        },
        {
            "name" : "Trigger",
            "primitives" : [
                {
                    "attributes" : {
                        "POSITION" : 8,
                        "NORMAL" : 9,
                        "TEXCOORD_0" : 10
                    },
                    "indices" : 11,
                    "material" : 0
                }
            ]
        }
    ],
    "accessors" : [
        {
            "bufferView" : 0,
            "componentType" : 5126,
            "count" : 2157,
            "max" : [
                0.07400091737508774,
                0.35998547077178955,
                1.3927918672561646
            ],
            "min" : [
                -0.07400097697973251,
                -0.538412868976593,
                -2.47991943359375
            ],
            "type" : "VEC3"
        },
        {
            "bufferView" : 1,
            "componentType" : 5126,
            "count" : 2157,
            "type" : "VEC3"
        },
        {
            "bufferView" : 2,
            "componentType" : 5126,
            "count" : 2157,
            "type" : "VEC2"
        },
        {
            "bufferView" : 3,
            "componentType" : 5123,
            "count" : 4074,
            "type" : "SCALAR"
        },
        {
            "bufferView" : 4,
            "componentType" : 5126,
            "count" : 165,
            "max" : [
                0.07171927392482758,
                0.0958637073636055,
                0.5561360120773315
            ],
            "min" : [
                -0.07171925902366638,
                -0.10975866764783859,
                -0.19402500987052917
            ],
            "type" : "VEC3"
        },
        {
            "bufferView" : 5,
            "componentType" : 5126,
            "count" : 165,
            "type" : "VEC3"
        },
        {
            "bufferView" : 6,
            "componentType" : 5126,
            "count" : 165,
            "type" : "VEC2"
        },
        {
            "bufferView" : 7,
            "componentType" : 5123,
            "count" : 288,
            "type" : "SCALAR"
        },
        {
            "bufferView" : 8,
            "componentType" : 5126,
            "count" : 100,
            "max" : [
                0.012504718266427517,
                -0.03734918683767319,
                0.19457004964351654
            ],
            "min" : [
                -0.01250473316758871,
                -0.19533810019493103,
                0.086346834897995
            ],
            "type" : "VEC3"
        },
        {
            "bufferView" : 9,
            "componentType" : 5126,
            "count" : 100,
            "type" : "VEC3"
        },
        {
            "bufferView" : 10,
            "componentType" : 5126,
            "count" : 100,
            "type" : "VEC2"
        },
        {
            "bufferView" : 11,
            "componentType" : 5123,
            "count" : 204,
            "type" : "SCALAR"
        }
    ],
    "bufferViews" : [
        {
            "buffer" : 0,
            "byteLength" : 25884,
            "byteOffset" : 0
        },
        {
            "buffer" : 0,
            "byteLength" : 25884,
            "byteOffset" : 25884
        },
        {
            "buffer" : 0,
            "byteLength" : 17256,
            "byteOffset" : 51768
        },
        {
            "buffer" : 0,
            "byteLength" : 8148,
            "byteOffset" : 69024
        },
        {
            "buffer" : 0,
            "byteLength" : 1980,
            "byteOffset" : 77172
        },
        {
            "buffer" : 0,
            "byteLength" : 1980,
            "byteOffset" : 79152
        },
        {
            "buffer" : 0,
            "byteLength" : 1320,
            "byteOffset" : 81132
        },
        {
            "buffer" : 0,
            "byteLength" : 576,
            "byteOffset" : 82452
        },
        {
            "buffer" : 0,
            "byteLength" : 1200,
            "byteOffset" : 83028
        },
        {
            "buffer" : 0,
            "byteLength" : 1200,
            "byteOffset" : 84228
        },
        {
            "buffer" : 0,
            "byteLength" : 800,
            "byteOffset" : 85428
        },
        {
            "buffer" : 0,
            "byteLength" : 408,
            "byteOffset" : 86228
        }
    ],
    "buffers" : [
        {
            "byteLength" : 86636,
            "uri" : "shotgun_01.bin"
        }
    ]
}
