{
	"asset":{
		"generator":"Khronos glTF Blender I/O v3.6.27",
		"version":"2.0"
	},
	"scene":0,
	"scenes":[
		{
			"name":"Scene",
			"nodes":[
				0,
				1,
				2,
				3,
				4
			]
		}
	],
	"nodes":[
		{
			"mesh":0,
			"name":"GunBody"
		},
		{
			"mesh":1,
			"name":"Barrel"
		},
		{
			"mesh":2,
			"name":"Grip"
		},
		{
			"mesh":3,
			"name":"Stock"
		},
		{
			"mesh":4,
			"name":"Trigger"
		}
	],
	"materials":[
		{
			"doubleSided":true,
			"name":"Material.002",
			"pbrMetallicRoughness":{
				"baseColorTexture":{
					"index":0
				},
				"metallicFactor":0,
				"roughnessFactor":0.5
			}
		}
	],
	"meshes":[
		{
			"name":"Cube.003",
			"primitives":[
				{
					"attributes":{
						"POSITION":0,
						"NORMAL":1,
						"TEXCOORD_0":2
					},
					"indices":3,
					"material":0
				}
			]
		},
		{
			"name":"Cylinder",
			"primitives":[
				{
					"attributes":{
						"POSITION":4,
						"NORMAL":5,
						"TEXCOORD_0":6
					},
					"indices":7,
					"material":0
				}
			]
		},
		{
			"name":"Cylinder.001",
			"primitives":[
				{
					"attributes":{
						"POSITION":8,
						"NORMAL":9,
						"TEXCOORD_0":10
					},
					"indices":11,
					"material":0
				}
			]
		},
		{
			"name":"Cylinder.002",
			"primitives":[
				{
					"attributes":{
						"POSITION":12,
						"NORMAL":13,
						"TEXCOORD_0":14
					},
					"indices":15,
					"material":0
				}
			]
		},
		{
			"name":"Cube.004",
			"primitives":[
				{
					"attributes":{
						"POSITION":16,
						"NORMAL":17,
						"TEXCOORD_0":18
					},
					"indices":19,
					"material":0
				}
			]
		}
	],
	"textures":[
		{
			"sampler":0,
			"source":0
		}
	],
	"images":[
		{
			"bufferView":4,
			"mimeType":"image/png",
			"name":"metal_a_01"
		}
	],
	"accessors":[
		{
			"bufferView":0,
			"componentType":5126,
			"count":2831,
			"max":[
				0.08829803764820099,
				0.5394585728645325,
				0.21513965725898743
			],
			"min":[
				-0.08829811960458755,
				-0.5161512494087219,
				-1.1433619260787964
			],
			"type":"VEC3"
		},
		{
			"bufferView":1,
			"componentType":5126,
			"count":2831,
			"type":"VEC3"
		},
		{
			"bufferView":2,
			"componentType":5126,
			"count":2831,
			"type":"VEC2"
		},
		{
			"bufferView":3,
			"componentType":5123,
			"count":3126,
			"type":"SCALAR"
		},
		{
			"bufferView":5,
			"componentType":5126,
			"count":764,
			"max":[
				0.06577779352664948,
				0.3906593918800354,
				-0.20868508517742157
			],
			"min":[
				-0.06577801704406738,
				0.25910359621047974,
				-1.329382300376892
			],
			"type":"VEC3"
		},
		{
			"bufferView":6,
			"componentType":5126,
			"count":764,
			"type":"VEC3"
		},
		{
			"bufferView":7,
			"componentType":5126,
			"count":764,
			"type":"VEC2"
		},
		{
			"bufferView":8,
			"componentType":5123,
			"count":780,
			"type":"SCALAR"
		},
		{
			"bufferView":9,
			"componentType":5126,
			"count":370,
			"max":[
				0.09431182593107224,
				0.1644625961780548,
				-0.7958643436431885
			],
			"min":[
				-0.09431198984384537,
				-0.3541458249092102,
				-1.1317768096923828
			],
			"type":"VEC3"
		},
		{
			"bufferView":10,
			"componentType":5126,
			"count":370,
			"type":"VEC3"
		},
		{
			"bufferView":11,
			"componentType":5126,
			"count":370,
			"type":"VEC2"
		},
		{
			"bufferView":12,
			"componentType":5123,
			"count":420,
			"type":"SCALAR"
		},
		{
			"bufferView":13,
			"componentType":5126,
			"count":1040,
			"max":[
				0.11034322530031204,
				0.4165247082710266,
				1.3152072429656982
			],
			"min":[
				-0.11034304648637772,
				-0.31842437386512756,
				-0.34431830048561096
			],
			"type":"VEC3"
		},
		{
			"bufferView":14,
			"componentType":5126,
			"count":1040,
			"type":"VEC3"
		},
		{
			"bufferView":15,
			"componentType":5126,
			"count":1040,
			"type":"VEC2"
		},
		{
			"bufferView":16,
			"componentType":5123,
			"count":1158,
			"type":"SCALAR"
		},
		{
			"bufferView":17,
			"componentType":5126,
			"count":130,
			"max":[
				0.013814103789627552,
				0.14339454472064972,
				-0.2598839998245239
			],
			"min":[
				-0.013814162462949753,
				0.007100176531821489,
				-0.41423600912094116
			],
			"type":"VEC3"
		},
		{
			"bufferView":18,
			"componentType":5126,
			"count":130,
			"type":"VEC3"
		},
		{
			"bufferView":19,
			"componentType":5126,
			"count":130,
			"type":"VEC2"
		},
		{
			"bufferView":20,
			"componentType":5123,
			"count":132,
			"type":"SCALAR"
		}
	],
	"bufferViews":[
		{
			"buffer":0,
			"byteLength":33972,
			"byteOffset":0,
			"target":34962
		},
		{
			"buffer":0,
			"byteLength":33972,
			"byteOffset":33972,
			"target":34962
		},
		{
			"buffer":0,
			"byteLength":22648,
			"byteOffset":67944,
			"target":34962
		},
		{
			"buffer":0,
			"byteLength":6252,
			"byteOffset":90592,
			"target":34963
		},
		{
			"buffer":0,
			"byteLength":514203,
			"byteOffset":96844
		},
		{
			"buffer":0,
			"byteLength":9168,
			"byteOffset":611048,
			"target":34962
		},
		{
			"buffer":0,
			"byteLength":9168,
			"byteOffset":620216,
			"target":34962
		},
		{
			"buffer":0,
			"byteLength":6112,
			"byteOffset":629384,
			"target":34962
		},
		{
			"buffer":0,
			"byteLength":1560,
			"byteOffset":635496,
			"target":34963
		},
		{
			"buffer":0,
			"byteLength":4440,
			"byteOffset":637056,
			"target":34962
		},
		{
			"buffer":0,
			"byteLength":4440,
			"byteOffset":641496,
			"target":34962
		},
		{
			"buffer":0,
			"byteLength":2960,
			"byteOffset":645936,
			"target":34962
		},
		{
			"buffer":0,
			"byteLength":840,
			"byteOffset":648896,
			"target":34963
		},
		{
			"buffer":0,
			"byteLength":12480,
			"byteOffset":649736,
			"target":34962
		},
		{
			"buffer":0,
			"byteLength":12480,
			"byteOffset":662216,
			"target":34962
		},
		{
			"buffer":0,
			"byteLength":8320,
			"byteOffset":674696,
			"target":34962
		},
		{
			"buffer":0,
			"byteLength":2316,
			"byteOffset":683016,
			"target":34963
		},
		{
			"buffer":0,
			"byteLength":1560,
			"byteOffset":685332,
			"target":34962
		},
		{
			"buffer":0,
			"byteLength":1560,
			"byteOffset":686892,
			"target":34962
		},
		{
			"buffer":0,
			"byteLength":1040,
			"byteOffset":688452,
			"target":34962
		},
		{
			"buffer":0,
			"byteLength":264,
			"byteOffset":689492,
			"target":34963
		}
	],
	"samplers":[
		{
			"magFilter":9729,
			"minFilter":9987
		}
	],
	"buffers":[
		{
			"byteLength":689756,
			"uri":"data:application/octet-stream;base64,"
		}
	]
}
